<mxfile host="app.diagrams.net" agent="Mozilla/5.0 (Windows NT 10.0; Win64; x64) AppleWebKit/537.36 (KHTML, like Gecko) Chrome/131.0.0.0 Safari/537.36" version="24.8.6" pages="2">
  <diagram name="ER DIAGRAM" id="Umiw3ccB-EdnL4fwKh97">
    <mxGraphModel dx="954" dy="650" grid="1" gridSize="10" guides="1" tooltips="1" connect="1" arrows="1" fold="1" page="1" pageScale="1" pageWidth="850" pageHeight="1100" math="0" shadow="0">
      <root>
        <mxCell id="0" />
        <mxCell id="1" parent="0" />
        <mxCell id="Mh_9xIaELjgsu_vMrWCr-121" value="user_id" style="curved=1;startArrow=ERmandOne;startSize=10;;endArrow=ERmany;endSize=10;;exitX=0.5;exitY=1;entryX=0.5;entryY=0;rounded=0;fontSize=12;" parent="1" edge="1">
          <mxGeometry relative="1" as="geometry">
            <Array as="points" />
            <mxPoint x="343" y="342" as="targetPoint" />
          </mxGeometry>
        </mxCell>
        <mxCell id="Mh_9xIaELjgsu_vMrWCr-123" value="product_id" style="curved=0;startArrow=ERmandOne;startSize=10;;endArrow=ERmany;endSize=10;;exitX=0.5;exitY=1;entryX=0.63;entryY=0;rounded=0;fontSize=12;" parent="1" edge="1">
          <mxGeometry relative="1" as="geometry">
            <Array as="points" />
            <mxPoint x="630.47" y="397" as="targetPoint" />
          </mxGeometry>
        </mxCell>
        <mxCell id="dDN7Ev0nYjmARdrbff_3-1" value="USERS" style="shape=table;startSize=25;container=1;collapsible=0;childLayout=tableLayout;fixedRows=1;rowLines=1;fontStyle=1;align=center;resizeLast=1;" parent="1" vertex="1">
          <mxGeometry x="200" y="641" width="143" height="201" as="geometry" />
        </mxCell>
        <mxCell id="dDN7Ev0nYjmARdrbff_3-2" style="shape=tableRow;horizontal=0;startSize=0;swimlaneHead=0;swimlaneBody=0;fillColor=none;collapsible=0;dropTarget=0;points=[[0,0.5],[1,0.5]];portConstraint=eastwest;top=0;left=0;right=0;bottom=0;" parent="dDN7Ev0nYjmARdrbff_3-1" vertex="1">
          <mxGeometry y="25" width="143" height="22" as="geometry" />
        </mxCell>
        <mxCell id="dDN7Ev0nYjmARdrbff_3-3" value="int" style="shape=partialRectangle;connectable=0;fillColor=none;top=0;left=0;bottom=0;right=0;align=left;spacingLeft=2;overflow=hidden;fontSize=11;" parent="dDN7Ev0nYjmARdrbff_3-2" vertex="1">
          <mxGeometry width="54" height="22" as="geometry">
            <mxRectangle width="54" height="22" as="alternateBounds" />
          </mxGeometry>
        </mxCell>
        <mxCell id="dDN7Ev0nYjmARdrbff_3-4" value="id" style="shape=partialRectangle;connectable=0;fillColor=none;top=0;left=0;bottom=0;right=0;align=left;spacingLeft=2;overflow=hidden;fontSize=11;" parent="dDN7Ev0nYjmARdrbff_3-2" vertex="1">
          <mxGeometry x="54" width="89" height="22" as="geometry">
            <mxRectangle width="89" height="22" as="alternateBounds" />
          </mxGeometry>
        </mxCell>
        <mxCell id="dDN7Ev0nYjmARdrbff_3-5" style="shape=tableRow;horizontal=0;startSize=0;swimlaneHead=0;swimlaneBody=0;fillColor=none;collapsible=0;dropTarget=0;points=[[0,0.5],[1,0.5]];portConstraint=eastwest;top=0;left=0;right=0;bottom=0;" parent="dDN7Ev0nYjmARdrbff_3-1" vertex="1">
          <mxGeometry y="47" width="143" height="22" as="geometry" />
        </mxCell>
        <mxCell id="dDN7Ev0nYjmARdrbff_3-6" value="varchar" style="shape=partialRectangle;connectable=0;fillColor=none;top=0;left=0;bottom=0;right=0;align=left;spacingLeft=2;overflow=hidden;fontSize=11;" parent="dDN7Ev0nYjmARdrbff_3-5" vertex="1">
          <mxGeometry width="54" height="22" as="geometry">
            <mxRectangle width="54" height="22" as="alternateBounds" />
          </mxGeometry>
        </mxCell>
        <mxCell id="dDN7Ev0nYjmARdrbff_3-7" value="username" style="shape=partialRectangle;connectable=0;fillColor=none;top=0;left=0;bottom=0;right=0;align=left;spacingLeft=2;overflow=hidden;fontSize=11;" parent="dDN7Ev0nYjmARdrbff_3-5" vertex="1">
          <mxGeometry x="54" width="89" height="22" as="geometry">
            <mxRectangle width="89" height="22" as="alternateBounds" />
          </mxGeometry>
        </mxCell>
        <mxCell id="dDN7Ev0nYjmARdrbff_3-8" style="shape=tableRow;horizontal=0;startSize=0;swimlaneHead=0;swimlaneBody=0;fillColor=none;collapsible=0;dropTarget=0;points=[[0,0.5],[1,0.5]];portConstraint=eastwest;top=0;left=0;right=0;bottom=0;" parent="dDN7Ev0nYjmARdrbff_3-1" vertex="1">
          <mxGeometry y="69" width="143" height="22" as="geometry" />
        </mxCell>
        <mxCell id="dDN7Ev0nYjmARdrbff_3-9" value="varchar" style="shape=partialRectangle;connectable=0;fillColor=none;top=0;left=0;bottom=0;right=0;align=left;spacingLeft=2;overflow=hidden;fontSize=11;" parent="dDN7Ev0nYjmARdrbff_3-8" vertex="1">
          <mxGeometry width="54" height="22" as="geometry">
            <mxRectangle width="54" height="22" as="alternateBounds" />
          </mxGeometry>
        </mxCell>
        <mxCell id="dDN7Ev0nYjmARdrbff_3-10" value="email" style="shape=partialRectangle;connectable=0;fillColor=none;top=0;left=0;bottom=0;right=0;align=left;spacingLeft=2;overflow=hidden;fontSize=11;" parent="dDN7Ev0nYjmARdrbff_3-8" vertex="1">
          <mxGeometry x="54" width="89" height="22" as="geometry">
            <mxRectangle width="89" height="22" as="alternateBounds" />
          </mxGeometry>
        </mxCell>
        <mxCell id="dDN7Ev0nYjmARdrbff_3-11" style="shape=tableRow;horizontal=0;startSize=0;swimlaneHead=0;swimlaneBody=0;fillColor=none;collapsible=0;dropTarget=0;points=[[0,0.5],[1,0.5]];portConstraint=eastwest;top=0;left=0;right=0;bottom=0;" parent="dDN7Ev0nYjmARdrbff_3-1" vertex="1">
          <mxGeometry y="91" width="143" height="22" as="geometry" />
        </mxCell>
        <mxCell id="dDN7Ev0nYjmARdrbff_3-12" value="varchar" style="shape=partialRectangle;connectable=0;fillColor=none;top=0;left=0;bottom=0;right=0;align=left;spacingLeft=2;overflow=hidden;fontSize=11;" parent="dDN7Ev0nYjmARdrbff_3-11" vertex="1">
          <mxGeometry width="54" height="22" as="geometry">
            <mxRectangle width="54" height="22" as="alternateBounds" />
          </mxGeometry>
        </mxCell>
        <mxCell id="dDN7Ev0nYjmARdrbff_3-13" value="password" style="shape=partialRectangle;connectable=0;fillColor=none;top=0;left=0;bottom=0;right=0;align=left;spacingLeft=2;overflow=hidden;fontSize=11;" parent="dDN7Ev0nYjmARdrbff_3-11" vertex="1">
          <mxGeometry x="54" width="89" height="22" as="geometry">
            <mxRectangle width="89" height="22" as="alternateBounds" />
          </mxGeometry>
        </mxCell>
        <mxCell id="dDN7Ev0nYjmARdrbff_3-14" style="shape=tableRow;horizontal=0;startSize=0;swimlaneHead=0;swimlaneBody=0;fillColor=none;collapsible=0;dropTarget=0;points=[[0,0.5],[1,0.5]];portConstraint=eastwest;top=0;left=0;right=0;bottom=0;" parent="dDN7Ev0nYjmARdrbff_3-1" vertex="1">
          <mxGeometry y="113" width="143" height="22" as="geometry" />
        </mxCell>
        <mxCell id="dDN7Ev0nYjmARdrbff_3-15" value="varchar" style="shape=partialRectangle;connectable=0;fillColor=none;top=0;left=0;bottom=0;right=0;align=left;spacingLeft=2;overflow=hidden;fontSize=11;" parent="dDN7Ev0nYjmARdrbff_3-14" vertex="1">
          <mxGeometry width="54" height="22" as="geometry">
            <mxRectangle width="54" height="22" as="alternateBounds" />
          </mxGeometry>
        </mxCell>
        <mxCell id="dDN7Ev0nYjmARdrbff_3-16" value="contact_no" style="shape=partialRectangle;connectable=0;fillColor=none;top=0;left=0;bottom=0;right=0;align=left;spacingLeft=2;overflow=hidden;fontSize=11;" parent="dDN7Ev0nYjmARdrbff_3-14" vertex="1">
          <mxGeometry x="54" width="89" height="22" as="geometry">
            <mxRectangle width="89" height="22" as="alternateBounds" />
          </mxGeometry>
        </mxCell>
        <mxCell id="dDN7Ev0nYjmARdrbff_3-17" style="shape=tableRow;horizontal=0;startSize=0;swimlaneHead=0;swimlaneBody=0;fillColor=none;collapsible=0;dropTarget=0;points=[[0,0.5],[1,0.5]];portConstraint=eastwest;top=0;left=0;right=0;bottom=0;" parent="dDN7Ev0nYjmARdrbff_3-1" vertex="1">
          <mxGeometry y="135" width="143" height="22" as="geometry" />
        </mxCell>
        <mxCell id="dDN7Ev0nYjmARdrbff_3-18" value="text" style="shape=partialRectangle;connectable=0;fillColor=none;top=0;left=0;bottom=0;right=0;align=left;spacingLeft=2;overflow=hidden;fontSize=11;" parent="dDN7Ev0nYjmARdrbff_3-17" vertex="1">
          <mxGeometry width="54" height="22" as="geometry">
            <mxRectangle width="54" height="22" as="alternateBounds" />
          </mxGeometry>
        </mxCell>
        <mxCell id="dDN7Ev0nYjmARdrbff_3-19" value="address" style="shape=partialRectangle;connectable=0;fillColor=none;top=0;left=0;bottom=0;right=0;align=left;spacingLeft=2;overflow=hidden;fontSize=11;" parent="dDN7Ev0nYjmARdrbff_3-17" vertex="1">
          <mxGeometry x="54" width="89" height="22" as="geometry">
            <mxRectangle width="89" height="22" as="alternateBounds" />
          </mxGeometry>
        </mxCell>
        <mxCell id="dDN7Ev0nYjmARdrbff_3-20" style="shape=tableRow;horizontal=0;startSize=0;swimlaneHead=0;swimlaneBody=0;fillColor=none;collapsible=0;dropTarget=0;points=[[0,0.5],[1,0.5]];portConstraint=eastwest;top=0;left=0;right=0;bottom=0;" parent="dDN7Ev0nYjmARdrbff_3-1" vertex="1">
          <mxGeometry y="157" width="143" height="22" as="geometry" />
        </mxCell>
        <mxCell id="dDN7Ev0nYjmARdrbff_3-21" value="enum" style="shape=partialRectangle;connectable=0;fillColor=none;top=0;left=0;bottom=0;right=0;align=left;spacingLeft=2;overflow=hidden;fontSize=11;" parent="dDN7Ev0nYjmARdrbff_3-20" vertex="1">
          <mxGeometry width="54" height="22" as="geometry">
            <mxRectangle width="54" height="22" as="alternateBounds" />
          </mxGeometry>
        </mxCell>
        <mxCell id="dDN7Ev0nYjmARdrbff_3-22" value="role" style="shape=partialRectangle;connectable=0;fillColor=none;top=0;left=0;bottom=0;right=0;align=left;spacingLeft=2;overflow=hidden;fontSize=11;" parent="dDN7Ev0nYjmARdrbff_3-20" vertex="1">
          <mxGeometry x="54" width="89" height="22" as="geometry">
            <mxRectangle width="89" height="22" as="alternateBounds" />
          </mxGeometry>
        </mxCell>
        <mxCell id="dDN7Ev0nYjmARdrbff_3-23" style="shape=tableRow;horizontal=0;startSize=0;swimlaneHead=0;swimlaneBody=0;fillColor=none;collapsible=0;dropTarget=0;points=[[0,0.5],[1,0.5]];portConstraint=eastwest;top=0;left=0;right=0;bottom=0;" parent="dDN7Ev0nYjmARdrbff_3-1" vertex="1">
          <mxGeometry y="179" width="143" height="22" as="geometry" />
        </mxCell>
        <mxCell id="dDN7Ev0nYjmARdrbff_3-24" value="timestamp" style="shape=partialRectangle;connectable=0;fillColor=none;top=0;left=0;bottom=0;right=0;align=left;spacingLeft=2;overflow=hidden;fontSize=11;" parent="dDN7Ev0nYjmARdrbff_3-23" vertex="1">
          <mxGeometry width="54" height="22" as="geometry">
            <mxRectangle width="54" height="22" as="alternateBounds" />
          </mxGeometry>
        </mxCell>
        <mxCell id="dDN7Ev0nYjmARdrbff_3-25" value="created_at" style="shape=partialRectangle;connectable=0;fillColor=none;top=0;left=0;bottom=0;right=0;align=left;spacingLeft=2;overflow=hidden;fontSize=11;" parent="dDN7Ev0nYjmARdrbff_3-23" vertex="1">
          <mxGeometry x="54" width="89" height="22" as="geometry">
            <mxRectangle width="89" height="22" as="alternateBounds" />
          </mxGeometry>
        </mxCell>
        <mxCell id="dDN7Ev0nYjmARdrbff_3-26" value="AUDIT_LOG" style="shape=table;startSize=25;container=1;collapsible=0;childLayout=tableLayout;fixedRows=1;rowLines=1;fontStyle=1;align=center;resizeLast=1;" parent="1" vertex="1">
          <mxGeometry x="20" y="950" width="141" height="113" as="geometry" />
        </mxCell>
        <mxCell id="dDN7Ev0nYjmARdrbff_3-27" style="shape=tableRow;horizontal=0;startSize=0;swimlaneHead=0;swimlaneBody=0;fillColor=none;collapsible=0;dropTarget=0;points=[[0,0.5],[1,0.5]];portConstraint=eastwest;top=0;left=0;right=0;bottom=0;" parent="dDN7Ev0nYjmARdrbff_3-26" vertex="1">
          <mxGeometry y="25" width="141" height="22" as="geometry" />
        </mxCell>
        <mxCell id="dDN7Ev0nYjmARdrbff_3-28" value="int" style="shape=partialRectangle;connectable=0;fillColor=none;top=0;left=0;bottom=0;right=0;align=left;spacingLeft=2;overflow=hidden;fontSize=11;" parent="dDN7Ev0nYjmARdrbff_3-27" vertex="1">
          <mxGeometry width="54" height="22" as="geometry">
            <mxRectangle width="54" height="22" as="alternateBounds" />
          </mxGeometry>
        </mxCell>
        <mxCell id="dDN7Ev0nYjmARdrbff_3-29" value="id" style="shape=partialRectangle;connectable=0;fillColor=none;top=0;left=0;bottom=0;right=0;align=left;spacingLeft=2;overflow=hidden;fontSize=11;" parent="dDN7Ev0nYjmARdrbff_3-27" vertex="1">
          <mxGeometry x="54" width="87" height="22" as="geometry">
            <mxRectangle width="87" height="22" as="alternateBounds" />
          </mxGeometry>
        </mxCell>
        <mxCell id="dDN7Ev0nYjmARdrbff_3-30" style="shape=tableRow;horizontal=0;startSize=0;swimlaneHead=0;swimlaneBody=0;fillColor=none;collapsible=0;dropTarget=0;points=[[0,0.5],[1,0.5]];portConstraint=eastwest;top=0;left=0;right=0;bottom=0;" parent="dDN7Ev0nYjmARdrbff_3-26" vertex="1">
          <mxGeometry y="47" width="141" height="22" as="geometry" />
        </mxCell>
        <mxCell id="dDN7Ev0nYjmARdrbff_3-31" value="int" style="shape=partialRectangle;connectable=0;fillColor=none;top=0;left=0;bottom=0;right=0;align=left;spacingLeft=2;overflow=hidden;fontSize=11;" parent="dDN7Ev0nYjmARdrbff_3-30" vertex="1">
          <mxGeometry width="54" height="22" as="geometry">
            <mxRectangle width="54" height="22" as="alternateBounds" />
          </mxGeometry>
        </mxCell>
        <mxCell id="dDN7Ev0nYjmARdrbff_3-32" value="user_id" style="shape=partialRectangle;connectable=0;fillColor=none;top=0;left=0;bottom=0;right=0;align=left;spacingLeft=2;overflow=hidden;fontSize=11;" parent="dDN7Ev0nYjmARdrbff_3-30" vertex="1">
          <mxGeometry x="54" width="87" height="22" as="geometry">
            <mxRectangle width="87" height="22" as="alternateBounds" />
          </mxGeometry>
        </mxCell>
        <mxCell id="dDN7Ev0nYjmARdrbff_3-33" style="shape=tableRow;horizontal=0;startSize=0;swimlaneHead=0;swimlaneBody=0;fillColor=none;collapsible=0;dropTarget=0;points=[[0,0.5],[1,0.5]];portConstraint=eastwest;top=0;left=0;right=0;bottom=0;" parent="dDN7Ev0nYjmARdrbff_3-26" vertex="1">
          <mxGeometry y="69" width="141" height="22" as="geometry" />
        </mxCell>
        <mxCell id="dDN7Ev0nYjmARdrbff_3-34" value="varchar" style="shape=partialRectangle;connectable=0;fillColor=none;top=0;left=0;bottom=0;right=0;align=left;spacingLeft=2;overflow=hidden;fontSize=11;" parent="dDN7Ev0nYjmARdrbff_3-33" vertex="1">
          <mxGeometry width="54" height="22" as="geometry">
            <mxRectangle width="54" height="22" as="alternateBounds" />
          </mxGeometry>
        </mxCell>
        <mxCell id="dDN7Ev0nYjmARdrbff_3-35" value="action" style="shape=partialRectangle;connectable=0;fillColor=none;top=0;left=0;bottom=0;right=0;align=left;spacingLeft=2;overflow=hidden;fontSize=11;" parent="dDN7Ev0nYjmARdrbff_3-33" vertex="1">
          <mxGeometry x="54" width="87" height="22" as="geometry">
            <mxRectangle width="87" height="22" as="alternateBounds" />
          </mxGeometry>
        </mxCell>
        <mxCell id="dDN7Ev0nYjmARdrbff_3-36" style="shape=tableRow;horizontal=0;startSize=0;swimlaneHead=0;swimlaneBody=0;fillColor=none;collapsible=0;dropTarget=0;points=[[0,0.5],[1,0.5]];portConstraint=eastwest;top=0;left=0;right=0;bottom=0;" parent="dDN7Ev0nYjmARdrbff_3-26" vertex="1">
          <mxGeometry y="91" width="141" height="22" as="geometry" />
        </mxCell>
        <mxCell id="dDN7Ev0nYjmARdrbff_3-37" value="timestamp" style="shape=partialRectangle;connectable=0;fillColor=none;top=0;left=0;bottom=0;right=0;align=left;spacingLeft=2;overflow=hidden;fontSize=11;" parent="dDN7Ev0nYjmARdrbff_3-36" vertex="1">
          <mxGeometry width="54" height="22" as="geometry">
            <mxRectangle width="54" height="22" as="alternateBounds" />
          </mxGeometry>
        </mxCell>
        <mxCell id="dDN7Ev0nYjmARdrbff_3-38" value="timestamp" style="shape=partialRectangle;connectable=0;fillColor=none;top=0;left=0;bottom=0;right=0;align=left;spacingLeft=2;overflow=hidden;fontSize=11;" parent="dDN7Ev0nYjmARdrbff_3-36" vertex="1">
          <mxGeometry x="54" width="87" height="22" as="geometry">
            <mxRectangle width="87" height="22" as="alternateBounds" />
          </mxGeometry>
        </mxCell>
        <mxCell id="dDN7Ev0nYjmARdrbff_3-39" value="CUSTOMIZATION_ORDERS" style="shape=table;startSize=20;container=1;collapsible=0;childLayout=tableLayout;fixedRows=1;rowLines=1;fontStyle=1;align=center;resizeLast=1;" parent="1" vertex="1">
          <mxGeometry x="230" y="930" width="180" height="265" as="geometry" />
        </mxCell>
        <mxCell id="dDN7Ev0nYjmARdrbff_3-40" style="shape=tableRow;horizontal=0;startSize=0;swimlaneHead=0;swimlaneBody=0;fillColor=none;collapsible=0;dropTarget=0;points=[[0,0.5],[1,0.5]];portConstraint=eastwest;top=0;left=0;right=0;bottom=0;" parent="dDN7Ev0nYjmARdrbff_3-39" vertex="1">
          <mxGeometry y="20" width="180" height="20" as="geometry" />
        </mxCell>
        <mxCell id="dDN7Ev0nYjmARdrbff_3-41" value="int" style="shape=partialRectangle;connectable=0;fillColor=none;top=0;left=0;bottom=0;right=0;align=left;spacingLeft=2;overflow=hidden;fontSize=11;" parent="dDN7Ev0nYjmARdrbff_3-40" vertex="1">
          <mxGeometry width="54" height="20" as="geometry">
            <mxRectangle width="54" height="20" as="alternateBounds" />
          </mxGeometry>
        </mxCell>
        <mxCell id="dDN7Ev0nYjmARdrbff_3-42" value="id" style="shape=partialRectangle;connectable=0;fillColor=none;top=0;left=0;bottom=0;right=0;align=left;spacingLeft=2;overflow=hidden;fontSize=11;" parent="dDN7Ev0nYjmARdrbff_3-40" vertex="1">
          <mxGeometry x="54" width="126" height="20" as="geometry">
            <mxRectangle width="126" height="20" as="alternateBounds" />
          </mxGeometry>
        </mxCell>
        <mxCell id="dDN7Ev0nYjmARdrbff_3-43" style="shape=tableRow;horizontal=0;startSize=0;swimlaneHead=0;swimlaneBody=0;fillColor=none;collapsible=0;dropTarget=0;points=[[0,0.5],[1,0.5]];portConstraint=eastwest;top=0;left=0;right=0;bottom=0;" parent="dDN7Ev0nYjmARdrbff_3-39" vertex="1">
          <mxGeometry y="40" width="180" height="22" as="geometry" />
        </mxCell>
        <mxCell id="dDN7Ev0nYjmARdrbff_3-44" value="int" style="shape=partialRectangle;connectable=0;fillColor=none;top=0;left=0;bottom=0;right=0;align=left;spacingLeft=2;overflow=hidden;fontSize=11;" parent="dDN7Ev0nYjmARdrbff_3-43" vertex="1">
          <mxGeometry width="54" height="22" as="geometry">
            <mxRectangle width="54" height="22" as="alternateBounds" />
          </mxGeometry>
        </mxCell>
        <mxCell id="dDN7Ev0nYjmARdrbff_3-45" value="user_id" style="shape=partialRectangle;connectable=0;fillColor=none;top=0;left=0;bottom=0;right=0;align=left;spacingLeft=2;overflow=hidden;fontSize=11;" parent="dDN7Ev0nYjmARdrbff_3-43" vertex="1">
          <mxGeometry x="54" width="126" height="22" as="geometry">
            <mxRectangle width="126" height="22" as="alternateBounds" />
          </mxGeometry>
        </mxCell>
        <mxCell id="dDN7Ev0nYjmARdrbff_3-46" style="shape=tableRow;horizontal=0;startSize=0;swimlaneHead=0;swimlaneBody=0;fillColor=none;collapsible=0;dropTarget=0;points=[[0,0.5],[1,0.5]];portConstraint=eastwest;top=0;left=0;right=0;bottom=0;" parent="dDN7Ev0nYjmARdrbff_3-39" vertex="1">
          <mxGeometry y="62" width="180" height="22" as="geometry" />
        </mxCell>
        <mxCell id="dDN7Ev0nYjmARdrbff_3-47" value="varchar" style="shape=partialRectangle;connectable=0;fillColor=none;top=0;left=0;bottom=0;right=0;align=left;spacingLeft=2;overflow=hidden;fontSize=11;" parent="dDN7Ev0nYjmARdrbff_3-46" vertex="1">
          <mxGeometry width="54" height="22" as="geometry">
            <mxRectangle width="54" height="22" as="alternateBounds" />
          </mxGeometry>
        </mxCell>
        <mxCell id="dDN7Ev0nYjmARdrbff_3-48" value="product_name" style="shape=partialRectangle;connectable=0;fillColor=none;top=0;left=0;bottom=0;right=0;align=left;spacingLeft=2;overflow=hidden;fontSize=11;" parent="dDN7Ev0nYjmARdrbff_3-46" vertex="1">
          <mxGeometry x="54" width="126" height="22" as="geometry">
            <mxRectangle width="126" height="22" as="alternateBounds" />
          </mxGeometry>
        </mxCell>
        <mxCell id="dDN7Ev0nYjmARdrbff_3-49" style="shape=tableRow;horizontal=0;startSize=0;swimlaneHead=0;swimlaneBody=0;fillColor=none;collapsible=0;dropTarget=0;points=[[0,0.5],[1,0.5]];portConstraint=eastwest;top=0;left=0;right=0;bottom=0;" parent="dDN7Ev0nYjmARdrbff_3-39" vertex="1">
          <mxGeometry y="84" width="180" height="22" as="geometry" />
        </mxCell>
        <mxCell id="dDN7Ev0nYjmARdrbff_3-50" value="enum" style="shape=partialRectangle;connectable=0;fillColor=none;top=0;left=0;bottom=0;right=0;align=left;spacingLeft=2;overflow=hidden;fontSize=11;" parent="dDN7Ev0nYjmARdrbff_3-49" vertex="1">
          <mxGeometry width="54" height="22" as="geometry">
            <mxRectangle width="54" height="22" as="alternateBounds" />
          </mxGeometry>
        </mxCell>
        <mxCell id="dDN7Ev0nYjmARdrbff_3-51" value="size" style="shape=partialRectangle;connectable=0;fillColor=none;top=0;left=0;bottom=0;right=0;align=left;spacingLeft=2;overflow=hidden;fontSize=11;" parent="dDN7Ev0nYjmARdrbff_3-49" vertex="1">
          <mxGeometry x="54" width="126" height="22" as="geometry">
            <mxRectangle width="126" height="22" as="alternateBounds" />
          </mxGeometry>
        </mxCell>
        <mxCell id="dDN7Ev0nYjmARdrbff_3-52" style="shape=tableRow;horizontal=0;startSize=0;swimlaneHead=0;swimlaneBody=0;fillColor=none;collapsible=0;dropTarget=0;points=[[0,0.5],[1,0.5]];portConstraint=eastwest;top=0;left=0;right=0;bottom=0;" parent="dDN7Ev0nYjmARdrbff_3-39" vertex="1">
          <mxGeometry y="106" width="180" height="22" as="geometry" />
        </mxCell>
        <mxCell id="dDN7Ev0nYjmARdrbff_3-53" value="longtext" style="shape=partialRectangle;connectable=0;fillColor=none;top=0;left=0;bottom=0;right=0;align=left;spacingLeft=2;overflow=hidden;fontSize=11;" parent="dDN7Ev0nYjmARdrbff_3-52" vertex="1">
          <mxGeometry width="54" height="22" as="geometry">
            <mxRectangle width="54" height="22" as="alternateBounds" />
          </mxGeometry>
        </mxCell>
        <mxCell id="dDN7Ev0nYjmARdrbff_3-54" value="customizations" style="shape=partialRectangle;connectable=0;fillColor=none;top=0;left=0;bottom=0;right=0;align=left;spacingLeft=2;overflow=hidden;fontSize=11;" parent="dDN7Ev0nYjmARdrbff_3-52" vertex="1">
          <mxGeometry x="54" width="126" height="22" as="geometry">
            <mxRectangle width="126" height="22" as="alternateBounds" />
          </mxGeometry>
        </mxCell>
        <mxCell id="dDN7Ev0nYjmARdrbff_3-55" style="shape=tableRow;horizontal=0;startSize=0;swimlaneHead=0;swimlaneBody=0;fillColor=none;collapsible=0;dropTarget=0;points=[[0,0.5],[1,0.5]];portConstraint=eastwest;top=0;left=0;right=0;bottom=0;" parent="dDN7Ev0nYjmARdrbff_3-39" vertex="1">
          <mxGeometry y="128" width="180" height="22" as="geometry" />
        </mxCell>
        <mxCell id="dDN7Ev0nYjmARdrbff_3-56" value="varchar" style="shape=partialRectangle;connectable=0;fillColor=none;top=0;left=0;bottom=0;right=0;align=left;spacingLeft=2;overflow=hidden;fontSize=11;" parent="dDN7Ev0nYjmARdrbff_3-55" vertex="1">
          <mxGeometry width="54" height="22" as="geometry">
            <mxRectangle width="54" height="22" as="alternateBounds" />
          </mxGeometry>
        </mxCell>
        <mxCell id="dDN7Ev0nYjmARdrbff_3-57" value="front_text" style="shape=partialRectangle;connectable=0;fillColor=none;top=0;left=0;bottom=0;right=0;align=left;spacingLeft=2;overflow=hidden;fontSize=11;" parent="dDN7Ev0nYjmARdrbff_3-55" vertex="1">
          <mxGeometry x="54" width="126" height="22" as="geometry">
            <mxRectangle width="126" height="22" as="alternateBounds" />
          </mxGeometry>
        </mxCell>
        <mxCell id="dDN7Ev0nYjmARdrbff_3-58" style="shape=tableRow;horizontal=0;startSize=0;swimlaneHead=0;swimlaneBody=0;fillColor=none;collapsible=0;dropTarget=0;points=[[0,0.5],[1,0.5]];portConstraint=eastwest;top=0;left=0;right=0;bottom=0;" parent="dDN7Ev0nYjmARdrbff_3-39" vertex="1">
          <mxGeometry y="150" width="180" height="22" as="geometry" />
        </mxCell>
        <mxCell id="dDN7Ev0nYjmARdrbff_3-59" value="varchar" style="shape=partialRectangle;connectable=0;fillColor=none;top=0;left=0;bottom=0;right=0;align=left;spacingLeft=2;overflow=hidden;fontSize=11;" parent="dDN7Ev0nYjmARdrbff_3-58" vertex="1">
          <mxGeometry width="54" height="22" as="geometry">
            <mxRectangle width="54" height="22" as="alternateBounds" />
          </mxGeometry>
        </mxCell>
        <mxCell id="dDN7Ev0nYjmARdrbff_3-60" value="back_text" style="shape=partialRectangle;connectable=0;fillColor=none;top=0;left=0;bottom=0;right=0;align=left;spacingLeft=2;overflow=hidden;fontSize=11;" parent="dDN7Ev0nYjmARdrbff_3-58" vertex="1">
          <mxGeometry x="54" width="126" height="22" as="geometry">
            <mxRectangle width="126" height="22" as="alternateBounds" />
          </mxGeometry>
        </mxCell>
        <mxCell id="dDN7Ev0nYjmARdrbff_3-61" style="shape=tableRow;horizontal=0;startSize=0;swimlaneHead=0;swimlaneBody=0;fillColor=none;collapsible=0;dropTarget=0;points=[[0,0.5],[1,0.5]];portConstraint=eastwest;top=0;left=0;right=0;bottom=0;" parent="dDN7Ev0nYjmARdrbff_3-39" vertex="1">
          <mxGeometry y="172" width="180" height="22" as="geometry" />
        </mxCell>
        <mxCell id="dDN7Ev0nYjmARdrbff_3-62" value="timestamp" style="shape=partialRectangle;connectable=0;fillColor=none;top=0;left=0;bottom=0;right=0;align=left;spacingLeft=2;overflow=hidden;fontSize=11;" parent="dDN7Ev0nYjmARdrbff_3-61" vertex="1">
          <mxGeometry width="54" height="22" as="geometry">
            <mxRectangle width="54" height="22" as="alternateBounds" />
          </mxGeometry>
        </mxCell>
        <mxCell id="dDN7Ev0nYjmARdrbff_3-63" value="order_date" style="shape=partialRectangle;connectable=0;fillColor=none;top=0;left=0;bottom=0;right=0;align=left;spacingLeft=2;overflow=hidden;fontSize=11;" parent="dDN7Ev0nYjmARdrbff_3-61" vertex="1">
          <mxGeometry x="54" width="126" height="22" as="geometry">
            <mxRectangle width="126" height="22" as="alternateBounds" />
          </mxGeometry>
        </mxCell>
        <mxCell id="dDN7Ev0nYjmARdrbff_3-64" style="shape=tableRow;horizontal=0;startSize=0;swimlaneHead=0;swimlaneBody=0;fillColor=none;collapsible=0;dropTarget=0;points=[[0,0.5],[1,0.5]];portConstraint=eastwest;top=0;left=0;right=0;bottom=0;" parent="dDN7Ev0nYjmARdrbff_3-39" vertex="1">
          <mxGeometry y="194" width="180" height="22" as="geometry" />
        </mxCell>
        <mxCell id="dDN7Ev0nYjmARdrbff_3-65" value="timestamp" style="shape=partialRectangle;connectable=0;fillColor=none;top=0;left=0;bottom=0;right=0;align=left;spacingLeft=2;overflow=hidden;fontSize=11;" parent="dDN7Ev0nYjmARdrbff_3-64" vertex="1">
          <mxGeometry width="54" height="22" as="geometry">
            <mxRectangle width="54" height="22" as="alternateBounds" />
          </mxGeometry>
        </mxCell>
        <mxCell id="dDN7Ev0nYjmARdrbff_3-66" value="updated_at" style="shape=partialRectangle;connectable=0;fillColor=none;top=0;left=0;bottom=0;right=0;align=left;spacingLeft=2;overflow=hidden;fontSize=11;" parent="dDN7Ev0nYjmARdrbff_3-64" vertex="1">
          <mxGeometry x="54" width="126" height="22" as="geometry">
            <mxRectangle width="126" height="22" as="alternateBounds" />
          </mxGeometry>
        </mxCell>
        <mxCell id="dDN7Ev0nYjmARdrbff_3-67" style="shape=tableRow;horizontal=0;startSize=0;swimlaneHead=0;swimlaneBody=0;fillColor=none;collapsible=0;dropTarget=0;points=[[0,0.5],[1,0.5]];portConstraint=eastwest;top=0;left=0;right=0;bottom=0;" parent="dDN7Ev0nYjmARdrbff_3-39" vertex="1">
          <mxGeometry y="216" width="180" height="22" as="geometry" />
        </mxCell>
        <mxCell id="dDN7Ev0nYjmARdrbff_3-68" value="enum" style="shape=partialRectangle;connectable=0;fillColor=none;top=0;left=0;bottom=0;right=0;align=left;spacingLeft=2;overflow=hidden;fontSize=11;" parent="dDN7Ev0nYjmARdrbff_3-67" vertex="1">
          <mxGeometry width="54" height="22" as="geometry">
            <mxRectangle width="54" height="22" as="alternateBounds" />
          </mxGeometry>
        </mxCell>
        <mxCell id="dDN7Ev0nYjmARdrbff_3-69" value="status" style="shape=partialRectangle;connectable=0;fillColor=none;top=0;left=0;bottom=0;right=0;align=left;spacingLeft=2;overflow=hidden;fontSize=11;" parent="dDN7Ev0nYjmARdrbff_3-67" vertex="1">
          <mxGeometry x="54" width="126" height="22" as="geometry">
            <mxRectangle width="126" height="22" as="alternateBounds" />
          </mxGeometry>
        </mxCell>
        <mxCell id="dDN7Ev0nYjmARdrbff_3-70" style="shape=tableRow;horizontal=0;startSize=0;swimlaneHead=0;swimlaneBody=0;fillColor=none;collapsible=0;dropTarget=0;points=[[0,0.5],[1,0.5]];portConstraint=eastwest;top=0;left=0;right=0;bottom=0;" parent="dDN7Ev0nYjmARdrbff_3-39" vertex="1">
          <mxGeometry y="238" width="180" height="22" as="geometry" />
        </mxCell>
        <mxCell id="dDN7Ev0nYjmARdrbff_3-71" value="varchar" style="shape=partialRectangle;connectable=0;fillColor=none;top=0;left=0;bottom=0;right=0;align=left;spacingLeft=2;overflow=hidden;fontSize=11;" parent="dDN7Ev0nYjmARdrbff_3-70" vertex="1">
          <mxGeometry width="54" height="22" as="geometry">
            <mxRectangle width="54" height="22" as="alternateBounds" />
          </mxGeometry>
        </mxCell>
        <mxCell id="dDN7Ev0nYjmARdrbff_3-72" value="file_path" style="shape=partialRectangle;connectable=0;fillColor=none;top=0;left=0;bottom=0;right=0;align=left;spacingLeft=2;overflow=hidden;fontSize=11;" parent="dDN7Ev0nYjmARdrbff_3-70" vertex="1">
          <mxGeometry x="54" width="126" height="22" as="geometry">
            <mxRectangle width="126" height="22" as="alternateBounds" />
          </mxGeometry>
        </mxCell>
        <mxCell id="dDN7Ev0nYjmARdrbff_3-73" value="ORDERS" style="shape=table;startSize=25;container=1;collapsible=0;childLayout=tableLayout;fixedRows=1;rowLines=1;fontStyle=1;align=center;resizeLast=1;" parent="1" vertex="1">
          <mxGeometry x="550" y="1000" width="169" height="157" as="geometry" />
        </mxCell>
        <mxCell id="dDN7Ev0nYjmARdrbff_3-74" style="shape=tableRow;horizontal=0;startSize=0;swimlaneHead=0;swimlaneBody=0;fillColor=none;collapsible=0;dropTarget=0;points=[[0,0.5],[1,0.5]];portConstraint=eastwest;top=0;left=0;right=0;bottom=0;" parent="dDN7Ev0nYjmARdrbff_3-73" vertex="1">
          <mxGeometry y="25" width="169" height="22" as="geometry" />
        </mxCell>
        <mxCell id="dDN7Ev0nYjmARdrbff_3-75" value="int" style="shape=partialRectangle;connectable=0;fillColor=none;top=0;left=0;bottom=0;right=0;align=left;spacingLeft=2;overflow=hidden;fontSize=11;" parent="dDN7Ev0nYjmARdrbff_3-74" vertex="1">
          <mxGeometry width="48" height="22" as="geometry">
            <mxRectangle width="48" height="22" as="alternateBounds" />
          </mxGeometry>
        </mxCell>
        <mxCell id="dDN7Ev0nYjmARdrbff_3-76" value="id" style="shape=partialRectangle;connectable=0;fillColor=none;top=0;left=0;bottom=0;right=0;align=left;spacingLeft=2;overflow=hidden;fontSize=11;" parent="dDN7Ev0nYjmARdrbff_3-74" vertex="1">
          <mxGeometry x="48" width="121" height="22" as="geometry">
            <mxRectangle width="121" height="22" as="alternateBounds" />
          </mxGeometry>
        </mxCell>
        <mxCell id="dDN7Ev0nYjmARdrbff_3-77" style="shape=tableRow;horizontal=0;startSize=0;swimlaneHead=0;swimlaneBody=0;fillColor=none;collapsible=0;dropTarget=0;points=[[0,0.5],[1,0.5]];portConstraint=eastwest;top=0;left=0;right=0;bottom=0;" parent="dDN7Ev0nYjmARdrbff_3-73" vertex="1">
          <mxGeometry y="47" width="169" height="22" as="geometry" />
        </mxCell>
        <mxCell id="dDN7Ev0nYjmARdrbff_3-78" value="int" style="shape=partialRectangle;connectable=0;fillColor=none;top=0;left=0;bottom=0;right=0;align=left;spacingLeft=2;overflow=hidden;fontSize=11;" parent="dDN7Ev0nYjmARdrbff_3-77" vertex="1">
          <mxGeometry width="48" height="22" as="geometry">
            <mxRectangle width="48" height="22" as="alternateBounds" />
          </mxGeometry>
        </mxCell>
        <mxCell id="dDN7Ev0nYjmARdrbff_3-79" value="user_id" style="shape=partialRectangle;connectable=0;fillColor=none;top=0;left=0;bottom=0;right=0;align=left;spacingLeft=2;overflow=hidden;fontSize=11;" parent="dDN7Ev0nYjmARdrbff_3-77" vertex="1">
          <mxGeometry x="48" width="121" height="22" as="geometry">
            <mxRectangle width="121" height="22" as="alternateBounds" />
          </mxGeometry>
        </mxCell>
        <mxCell id="dDN7Ev0nYjmARdrbff_3-80" style="shape=tableRow;horizontal=0;startSize=0;swimlaneHead=0;swimlaneBody=0;fillColor=none;collapsible=0;dropTarget=0;points=[[0,0.5],[1,0.5]];portConstraint=eastwest;top=0;left=0;right=0;bottom=0;" parent="dDN7Ev0nYjmARdrbff_3-73" vertex="1">
          <mxGeometry y="69" width="169" height="22" as="geometry" />
        </mxCell>
        <mxCell id="dDN7Ev0nYjmARdrbff_3-81" value="int" style="shape=partialRectangle;connectable=0;fillColor=none;top=0;left=0;bottom=0;right=0;align=left;spacingLeft=2;overflow=hidden;fontSize=11;" parent="dDN7Ev0nYjmARdrbff_3-80" vertex="1">
          <mxGeometry width="48" height="22" as="geometry">
            <mxRectangle width="48" height="22" as="alternateBounds" />
          </mxGeometry>
        </mxCell>
        <mxCell id="dDN7Ev0nYjmARdrbff_3-82" value="product_id" style="shape=partialRectangle;connectable=0;fillColor=none;top=0;left=0;bottom=0;right=0;align=left;spacingLeft=2;overflow=hidden;fontSize=11;" parent="dDN7Ev0nYjmARdrbff_3-80" vertex="1">
          <mxGeometry x="48" width="121" height="22" as="geometry">
            <mxRectangle width="121" height="22" as="alternateBounds" />
          </mxGeometry>
        </mxCell>
        <mxCell id="dDN7Ev0nYjmARdrbff_3-83" style="shape=tableRow;horizontal=0;startSize=0;swimlaneHead=0;swimlaneBody=0;fillColor=none;collapsible=0;dropTarget=0;points=[[0,0.5],[1,0.5]];portConstraint=eastwest;top=0;left=0;right=0;bottom=0;" parent="dDN7Ev0nYjmARdrbff_3-73" vertex="1">
          <mxGeometry y="91" width="169" height="22" as="geometry" />
        </mxCell>
        <mxCell id="dDN7Ev0nYjmARdrbff_3-84" value="datetime" style="shape=partialRectangle;connectable=0;fillColor=none;top=0;left=0;bottom=0;right=0;align=left;spacingLeft=2;overflow=hidden;fontSize=11;" parent="dDN7Ev0nYjmARdrbff_3-83" vertex="1">
          <mxGeometry width="48" height="22" as="geometry">
            <mxRectangle width="48" height="22" as="alternateBounds" />
          </mxGeometry>
        </mxCell>
        <mxCell id="dDN7Ev0nYjmARdrbff_3-85" value="order_date" style="shape=partialRectangle;connectable=0;fillColor=none;top=0;left=0;bottom=0;right=0;align=left;spacingLeft=2;overflow=hidden;fontSize=11;" parent="dDN7Ev0nYjmARdrbff_3-83" vertex="1">
          <mxGeometry x="48" width="121" height="22" as="geometry">
            <mxRectangle width="121" height="22" as="alternateBounds" />
          </mxGeometry>
        </mxCell>
        <mxCell id="dDN7Ev0nYjmARdrbff_3-86" style="shape=tableRow;horizontal=0;startSize=0;swimlaneHead=0;swimlaneBody=0;fillColor=none;collapsible=0;dropTarget=0;points=[[0,0.5],[1,0.5]];portConstraint=eastwest;top=0;left=0;right=0;bottom=0;" parent="dDN7Ev0nYjmARdrbff_3-73" vertex="1">
          <mxGeometry y="113" width="169" height="22" as="geometry" />
        </mxCell>
        <mxCell id="dDN7Ev0nYjmARdrbff_3-87" value="varchar" style="shape=partialRectangle;connectable=0;fillColor=none;top=0;left=0;bottom=0;right=0;align=left;spacingLeft=2;overflow=hidden;fontSize=11;" parent="dDN7Ev0nYjmARdrbff_3-86" vertex="1">
          <mxGeometry width="48" height="22" as="geometry">
            <mxRectangle width="48" height="22" as="alternateBounds" />
          </mxGeometry>
        </mxCell>
        <mxCell id="dDN7Ev0nYjmARdrbff_3-88" value="status" style="shape=partialRectangle;connectable=0;fillColor=none;top=0;left=0;bottom=0;right=0;align=left;spacingLeft=2;overflow=hidden;fontSize=11;" parent="dDN7Ev0nYjmARdrbff_3-86" vertex="1">
          <mxGeometry x="48" width="121" height="22" as="geometry">
            <mxRectangle width="121" height="22" as="alternateBounds" />
          </mxGeometry>
        </mxCell>
        <mxCell id="dDN7Ev0nYjmARdrbff_3-89" style="shape=tableRow;horizontal=0;startSize=0;swimlaneHead=0;swimlaneBody=0;fillColor=none;collapsible=0;dropTarget=0;points=[[0,0.5],[1,0.5]];portConstraint=eastwest;top=0;left=0;right=0;bottom=0;" parent="dDN7Ev0nYjmARdrbff_3-73" vertex="1">
          <mxGeometry y="135" width="169" height="22" as="geometry" />
        </mxCell>
        <mxCell id="dDN7Ev0nYjmARdrbff_3-90" value="varchar" style="shape=partialRectangle;connectable=0;fillColor=none;top=0;left=0;bottom=0;right=0;align=left;spacingLeft=2;overflow=hidden;fontSize=11;" parent="dDN7Ev0nYjmARdrbff_3-89" vertex="1">
          <mxGeometry width="48" height="22" as="geometry">
            <mxRectangle width="48" height="22" as="alternateBounds" />
          </mxGeometry>
        </mxCell>
        <mxCell id="dDN7Ev0nYjmARdrbff_3-91" value="facebook_account" style="shape=partialRectangle;connectable=0;fillColor=none;top=0;left=0;bottom=0;right=0;align=left;spacingLeft=2;overflow=hidden;fontSize=11;" parent="dDN7Ev0nYjmARdrbff_3-89" vertex="1">
          <mxGeometry x="48" width="121" height="22" as="geometry">
            <mxRectangle width="121" height="22" as="alternateBounds" />
          </mxGeometry>
        </mxCell>
        <mxCell id="dDN7Ev0nYjmARdrbff_3-92" value="PREDEFINED_QUESTIONS" style="shape=table;startSize=25;container=1;collapsible=0;childLayout=tableLayout;fixedRows=1;rowLines=1;fontStyle=1;align=center;resizeLast=1;" parent="1" vertex="1">
          <mxGeometry x="380" y="641" width="161" height="91" as="geometry" />
        </mxCell>
        <mxCell id="dDN7Ev0nYjmARdrbff_3-93" style="shape=tableRow;horizontal=0;startSize=0;swimlaneHead=0;swimlaneBody=0;fillColor=none;collapsible=0;dropTarget=0;points=[[0,0.5],[1,0.5]];portConstraint=eastwest;top=0;left=0;right=0;bottom=0;" parent="dDN7Ev0nYjmARdrbff_3-92" vertex="1">
          <mxGeometry y="25" width="161" height="22" as="geometry" />
        </mxCell>
        <mxCell id="dDN7Ev0nYjmARdrbff_3-94" value="int" style="shape=partialRectangle;connectable=0;fillColor=none;top=0;left=0;bottom=0;right=0;align=left;spacingLeft=2;overflow=hidden;fontSize=11;" parent="dDN7Ev0nYjmARdrbff_3-93" vertex="1">
          <mxGeometry width="42" height="22" as="geometry">
            <mxRectangle width="42" height="22" as="alternateBounds" />
          </mxGeometry>
        </mxCell>
        <mxCell id="dDN7Ev0nYjmARdrbff_3-95" value="id" style="shape=partialRectangle;connectable=0;fillColor=none;top=0;left=0;bottom=0;right=0;align=left;spacingLeft=2;overflow=hidden;fontSize=11;" parent="dDN7Ev0nYjmARdrbff_3-93" vertex="1">
          <mxGeometry x="42" width="119" height="22" as="geometry">
            <mxRectangle width="119" height="22" as="alternateBounds" />
          </mxGeometry>
        </mxCell>
        <mxCell id="dDN7Ev0nYjmARdrbff_3-96" style="shape=tableRow;horizontal=0;startSize=0;swimlaneHead=0;swimlaneBody=0;fillColor=none;collapsible=0;dropTarget=0;points=[[0,0.5],[1,0.5]];portConstraint=eastwest;top=0;left=0;right=0;bottom=0;" parent="dDN7Ev0nYjmARdrbff_3-92" vertex="1">
          <mxGeometry y="47" width="161" height="22" as="geometry" />
        </mxCell>
        <mxCell id="dDN7Ev0nYjmARdrbff_3-97" value="varchar" style="shape=partialRectangle;connectable=0;fillColor=none;top=0;left=0;bottom=0;right=0;align=left;spacingLeft=2;overflow=hidden;fontSize=11;" parent="dDN7Ev0nYjmARdrbff_3-96" vertex="1">
          <mxGeometry width="42" height="22" as="geometry">
            <mxRectangle width="42" height="22" as="alternateBounds" />
          </mxGeometry>
        </mxCell>
        <mxCell id="dDN7Ev0nYjmARdrbff_3-98" value="question" style="shape=partialRectangle;connectable=0;fillColor=none;top=0;left=0;bottom=0;right=0;align=left;spacingLeft=2;overflow=hidden;fontSize=11;" parent="dDN7Ev0nYjmARdrbff_3-96" vertex="1">
          <mxGeometry x="42" width="119" height="22" as="geometry">
            <mxRectangle width="119" height="22" as="alternateBounds" />
          </mxGeometry>
        </mxCell>
        <mxCell id="dDN7Ev0nYjmARdrbff_3-99" style="shape=tableRow;horizontal=0;startSize=0;swimlaneHead=0;swimlaneBody=0;fillColor=none;collapsible=0;dropTarget=0;points=[[0,0.5],[1,0.5]];portConstraint=eastwest;top=0;left=0;right=0;bottom=0;" parent="dDN7Ev0nYjmARdrbff_3-92" vertex="1">
          <mxGeometry y="69" width="161" height="22" as="geometry" />
        </mxCell>
        <mxCell id="dDN7Ev0nYjmARdrbff_3-100" value="text" style="shape=partialRectangle;connectable=0;fillColor=none;top=0;left=0;bottom=0;right=0;align=left;spacingLeft=2;overflow=hidden;fontSize=11;" parent="dDN7Ev0nYjmARdrbff_3-99" vertex="1">
          <mxGeometry width="42" height="22" as="geometry">
            <mxRectangle width="42" height="22" as="alternateBounds" />
          </mxGeometry>
        </mxCell>
        <mxCell id="dDN7Ev0nYjmARdrbff_3-101" value="answer" style="shape=partialRectangle;connectable=0;fillColor=none;top=0;left=0;bottom=0;right=0;align=left;spacingLeft=2;overflow=hidden;fontSize=11;" parent="dDN7Ev0nYjmARdrbff_3-99" vertex="1">
          <mxGeometry x="42" width="119" height="22" as="geometry">
            <mxRectangle width="119" height="22" as="alternateBounds" />
          </mxGeometry>
        </mxCell>
        <mxCell id="dDN7Ev0nYjmARdrbff_3-102" value="PRODUCTS" style="shape=table;startSize=25;container=1;collapsible=0;childLayout=tableLayout;fixedRows=1;rowLines=1;fontStyle=1;align=center;resizeLast=1;" parent="1" vertex="1">
          <mxGeometry x="590" y="641" width="149" height="221" as="geometry" />
        </mxCell>
        <mxCell id="dDN7Ev0nYjmARdrbff_3-103" style="shape=tableRow;horizontal=0;startSize=0;swimlaneHead=0;swimlaneBody=0;fillColor=none;collapsible=0;dropTarget=0;points=[[0,0.5],[1,0.5]];portConstraint=eastwest;top=0;left=0;right=0;bottom=0;" parent="dDN7Ev0nYjmARdrbff_3-102" vertex="1">
          <mxGeometry y="25" width="149" height="22" as="geometry" />
        </mxCell>
        <mxCell id="dDN7Ev0nYjmARdrbff_3-104" value="int" style="shape=partialRectangle;connectable=0;fillColor=none;top=0;left=0;bottom=0;right=0;align=left;spacingLeft=2;overflow=hidden;fontSize=11;" parent="dDN7Ev0nYjmARdrbff_3-103" vertex="1">
          <mxGeometry width="48" height="22" as="geometry">
            <mxRectangle width="48" height="22" as="alternateBounds" />
          </mxGeometry>
        </mxCell>
        <mxCell id="dDN7Ev0nYjmARdrbff_3-105" value="id" style="shape=partialRectangle;connectable=0;fillColor=none;top=0;left=0;bottom=0;right=0;align=left;spacingLeft=2;overflow=hidden;fontSize=11;" parent="dDN7Ev0nYjmARdrbff_3-103" vertex="1">
          <mxGeometry x="48" width="101" height="22" as="geometry">
            <mxRectangle width="101" height="22" as="alternateBounds" />
          </mxGeometry>
        </mxCell>
        <mxCell id="dDN7Ev0nYjmARdrbff_3-106" style="shape=tableRow;horizontal=0;startSize=0;swimlaneHead=0;swimlaneBody=0;fillColor=none;collapsible=0;dropTarget=0;points=[[0,0.5],[1,0.5]];portConstraint=eastwest;top=0;left=0;right=0;bottom=0;" parent="dDN7Ev0nYjmARdrbff_3-102" vertex="1">
          <mxGeometry y="47" width="149" height="22" as="geometry" />
        </mxCell>
        <mxCell id="dDN7Ev0nYjmARdrbff_3-107" value="varchar" style="shape=partialRectangle;connectable=0;fillColor=none;top=0;left=0;bottom=0;right=0;align=left;spacingLeft=2;overflow=hidden;fontSize=11;" parent="dDN7Ev0nYjmARdrbff_3-106" vertex="1">
          <mxGeometry width="48" height="22" as="geometry">
            <mxRectangle width="48" height="22" as="alternateBounds" />
          </mxGeometry>
        </mxCell>
        <mxCell id="dDN7Ev0nYjmARdrbff_3-108" value="name" style="shape=partialRectangle;connectable=0;fillColor=none;top=0;left=0;bottom=0;right=0;align=left;spacingLeft=2;overflow=hidden;fontSize=11;" parent="dDN7Ev0nYjmARdrbff_3-106" vertex="1">
          <mxGeometry x="48" width="101" height="22" as="geometry">
            <mxRectangle width="101" height="22" as="alternateBounds" />
          </mxGeometry>
        </mxCell>
        <mxCell id="dDN7Ev0nYjmARdrbff_3-109" style="shape=tableRow;horizontal=0;startSize=0;swimlaneHead=0;swimlaneBody=0;fillColor=none;collapsible=0;dropTarget=0;points=[[0,0.5],[1,0.5]];portConstraint=eastwest;top=0;left=0;right=0;bottom=0;" parent="dDN7Ev0nYjmARdrbff_3-102" vertex="1">
          <mxGeometry y="69" width="149" height="22" as="geometry" />
        </mxCell>
        <mxCell id="dDN7Ev0nYjmARdrbff_3-110" value="text" style="shape=partialRectangle;connectable=0;fillColor=none;top=0;left=0;bottom=0;right=0;align=left;spacingLeft=2;overflow=hidden;fontSize=11;" parent="dDN7Ev0nYjmARdrbff_3-109" vertex="1">
          <mxGeometry width="48" height="22" as="geometry">
            <mxRectangle width="48" height="22" as="alternateBounds" />
          </mxGeometry>
        </mxCell>
        <mxCell id="dDN7Ev0nYjmARdrbff_3-111" value="description" style="shape=partialRectangle;connectable=0;fillColor=none;top=0;left=0;bottom=0;right=0;align=left;spacingLeft=2;overflow=hidden;fontSize=11;" parent="dDN7Ev0nYjmARdrbff_3-109" vertex="1">
          <mxGeometry x="48" width="101" height="22" as="geometry">
            <mxRectangle width="101" height="22" as="alternateBounds" />
          </mxGeometry>
        </mxCell>
        <mxCell id="dDN7Ev0nYjmARdrbff_3-112" style="shape=tableRow;horizontal=0;startSize=0;swimlaneHead=0;swimlaneBody=0;fillColor=none;collapsible=0;dropTarget=0;points=[[0,0.5],[1,0.5]];portConstraint=eastwest;top=0;left=0;right=0;bottom=0;" parent="dDN7Ev0nYjmARdrbff_3-102" vertex="1">
          <mxGeometry y="91" width="149" height="22" as="geometry" />
        </mxCell>
        <mxCell id="dDN7Ev0nYjmARdrbff_3-113" value="decimal" style="shape=partialRectangle;connectable=0;fillColor=none;top=0;left=0;bottom=0;right=0;align=left;spacingLeft=2;overflow=hidden;fontSize=11;" parent="dDN7Ev0nYjmARdrbff_3-112" vertex="1">
          <mxGeometry width="48" height="22" as="geometry">
            <mxRectangle width="48" height="22" as="alternateBounds" />
          </mxGeometry>
        </mxCell>
        <mxCell id="dDN7Ev0nYjmARdrbff_3-114" value="price" style="shape=partialRectangle;connectable=0;fillColor=none;top=0;left=0;bottom=0;right=0;align=left;spacingLeft=2;overflow=hidden;fontSize=11;" parent="dDN7Ev0nYjmARdrbff_3-112" vertex="1">
          <mxGeometry x="48" width="101" height="22" as="geometry">
            <mxRectangle width="101" height="22" as="alternateBounds" />
          </mxGeometry>
        </mxCell>
        <mxCell id="dDN7Ev0nYjmARdrbff_3-115" style="shape=tableRow;horizontal=0;startSize=0;swimlaneHead=0;swimlaneBody=0;fillColor=none;collapsible=0;dropTarget=0;points=[[0,0.5],[1,0.5]];portConstraint=eastwest;top=0;left=0;right=0;bottom=0;" parent="dDN7Ev0nYjmARdrbff_3-102" vertex="1">
          <mxGeometry y="113" width="149" height="20" as="geometry" />
        </mxCell>
        <mxCell id="dDN7Ev0nYjmARdrbff_3-116" value="varchar" style="shape=partialRectangle;connectable=0;fillColor=none;top=0;left=0;bottom=0;right=0;align=left;spacingLeft=2;overflow=hidden;fontSize=11;" parent="dDN7Ev0nYjmARdrbff_3-115" vertex="1">
          <mxGeometry width="48" height="20" as="geometry">
            <mxRectangle width="48" height="20" as="alternateBounds" />
          </mxGeometry>
        </mxCell>
        <mxCell id="dDN7Ev0nYjmARdrbff_3-117" value="image_url" style="shape=partialRectangle;connectable=0;fillColor=none;top=0;left=0;bottom=0;right=0;align=left;spacingLeft=2;overflow=hidden;fontSize=11;" parent="dDN7Ev0nYjmARdrbff_3-115" vertex="1">
          <mxGeometry x="48" width="101" height="20" as="geometry">
            <mxRectangle width="101" height="20" as="alternateBounds" />
          </mxGeometry>
        </mxCell>
        <mxCell id="dDN7Ev0nYjmARdrbff_3-118" style="shape=tableRow;horizontal=0;startSize=0;swimlaneHead=0;swimlaneBody=0;fillColor=none;collapsible=0;dropTarget=0;points=[[0,0.5],[1,0.5]];portConstraint=eastwest;top=0;left=0;right=0;bottom=0;" parent="dDN7Ev0nYjmARdrbff_3-102" vertex="1">
          <mxGeometry y="133" width="149" height="22" as="geometry" />
        </mxCell>
        <mxCell id="dDN7Ev0nYjmARdrbff_3-119" value="datetime" style="shape=partialRectangle;connectable=0;fillColor=none;top=0;left=0;bottom=0;right=0;align=left;spacingLeft=2;overflow=hidden;fontSize=11;" parent="dDN7Ev0nYjmARdrbff_3-118" vertex="1">
          <mxGeometry width="48" height="22" as="geometry">
            <mxRectangle width="48" height="22" as="alternateBounds" />
          </mxGeometry>
        </mxCell>
        <mxCell id="dDN7Ev0nYjmARdrbff_3-120" value="date_created" style="shape=partialRectangle;connectable=0;fillColor=none;top=0;left=0;bottom=0;right=0;align=left;spacingLeft=2;overflow=hidden;fontSize=11;" parent="dDN7Ev0nYjmARdrbff_3-118" vertex="1">
          <mxGeometry x="48" width="101" height="22" as="geometry">
            <mxRectangle width="101" height="22" as="alternateBounds" />
          </mxGeometry>
        </mxCell>
        <mxCell id="dDN7Ev0nYjmARdrbff_3-121" style="shape=tableRow;horizontal=0;startSize=0;swimlaneHead=0;swimlaneBody=0;fillColor=none;collapsible=0;dropTarget=0;points=[[0,0.5],[1,0.5]];portConstraint=eastwest;top=0;left=0;right=0;bottom=0;" parent="dDN7Ev0nYjmARdrbff_3-102" vertex="1">
          <mxGeometry y="155" width="149" height="22" as="geometry" />
        </mxCell>
        <mxCell id="dDN7Ev0nYjmARdrbff_3-122" value="datetime" style="shape=partialRectangle;connectable=0;fillColor=none;top=0;left=0;bottom=0;right=0;align=left;spacingLeft=2;overflow=hidden;fontSize=11;" parent="dDN7Ev0nYjmARdrbff_3-121" vertex="1">
          <mxGeometry width="48" height="22" as="geometry">
            <mxRectangle width="48" height="22" as="alternateBounds" />
          </mxGeometry>
        </mxCell>
        <mxCell id="dDN7Ev0nYjmARdrbff_3-123" value="date_updated" style="shape=partialRectangle;connectable=0;fillColor=none;top=0;left=0;bottom=0;right=0;align=left;spacingLeft=2;overflow=hidden;fontSize=11;" parent="dDN7Ev0nYjmARdrbff_3-121" vertex="1">
          <mxGeometry x="48" width="101" height="22" as="geometry">
            <mxRectangle width="101" height="22" as="alternateBounds" />
          </mxGeometry>
        </mxCell>
        <mxCell id="dDN7Ev0nYjmARdrbff_3-124" style="shape=tableRow;horizontal=0;startSize=0;swimlaneHead=0;swimlaneBody=0;fillColor=none;collapsible=0;dropTarget=0;points=[[0,0.5],[1,0.5]];portConstraint=eastwest;top=0;left=0;right=0;bottom=0;" parent="dDN7Ev0nYjmARdrbff_3-102" vertex="1">
          <mxGeometry y="177" width="149" height="22" as="geometry" />
        </mxCell>
        <mxCell id="dDN7Ev0nYjmARdrbff_3-125" value="enum" style="shape=partialRectangle;connectable=0;fillColor=none;top=0;left=0;bottom=0;right=0;align=left;spacingLeft=2;overflow=hidden;fontSize=11;" parent="dDN7Ev0nYjmARdrbff_3-124" vertex="1">
          <mxGeometry width="48" height="22" as="geometry">
            <mxRectangle width="48" height="22" as="alternateBounds" />
          </mxGeometry>
        </mxCell>
        <mxCell id="dDN7Ev0nYjmARdrbff_3-126" value="size" style="shape=partialRectangle;connectable=0;fillColor=none;top=0;left=0;bottom=0;right=0;align=left;spacingLeft=2;overflow=hidden;fontSize=11;" parent="dDN7Ev0nYjmARdrbff_3-124" vertex="1">
          <mxGeometry x="48" width="101" height="22" as="geometry">
            <mxRectangle width="101" height="22" as="alternateBounds" />
          </mxGeometry>
        </mxCell>
        <mxCell id="dDN7Ev0nYjmARdrbff_3-127" style="shape=tableRow;horizontal=0;startSize=0;swimlaneHead=0;swimlaneBody=0;fillColor=none;collapsible=0;dropTarget=0;points=[[0,0.5],[1,0.5]];portConstraint=eastwest;top=0;left=0;right=0;bottom=0;" parent="dDN7Ev0nYjmARdrbff_3-102" vertex="1">
          <mxGeometry y="199" width="149" height="22" as="geometry" />
        </mxCell>
        <mxCell id="dDN7Ev0nYjmARdrbff_3-128" value="tinyint" style="shape=partialRectangle;connectable=0;fillColor=none;top=0;left=0;bottom=0;right=0;align=left;spacingLeft=2;overflow=hidden;fontSize=11;" parent="dDN7Ev0nYjmARdrbff_3-127" vertex="1">
          <mxGeometry width="48" height="22" as="geometry">
            <mxRectangle width="48" height="22" as="alternateBounds" />
          </mxGeometry>
        </mxCell>
        <mxCell id="dDN7Ev0nYjmARdrbff_3-129" value="stock" style="shape=partialRectangle;connectable=0;fillColor=none;top=0;left=0;bottom=0;right=0;align=left;spacingLeft=2;overflow=hidden;fontSize=11;" parent="dDN7Ev0nYjmARdrbff_3-127" vertex="1">
          <mxGeometry x="48" width="101" height="22" as="geometry">
            <mxRectangle width="101" height="22" as="alternateBounds" />
          </mxGeometry>
        </mxCell>
        <mxCell id="dDN7Ev0nYjmARdrbff_3-130" value="user_id" style="curved=0;startArrow=ERmandOne;startSize=10;;endArrow=ERmany;endSize=10;;exitX=0;exitY=0.82;entryX=0.5;entryY=0;rounded=0;fontSize=12;" parent="1" source="dDN7Ev0nYjmARdrbff_3-1" target="dDN7Ev0nYjmARdrbff_3-26" edge="1">
          <mxGeometry x="-0.3977" y="-6" relative="1" as="geometry">
            <Array as="points">
              <mxPoint x="91" y="806" />
            </Array>
            <mxPoint as="offset" />
          </mxGeometry>
        </mxCell>
        <mxCell id="dDN7Ev0nYjmARdrbff_3-131" value="user_id" style="curved=0;startArrow=ERmandOne;startSize=10;;endArrow=ERmany;endSize=10;;exitX=0.81;exitY=1;entryX=0.5;entryY=0;rounded=0;fontSize=12;" parent="1" source="dDN7Ev0nYjmARdrbff_3-1" target="dDN7Ev0nYjmARdrbff_3-39" edge="1">
          <mxGeometry relative="1" as="geometry">
            <Array as="points" />
          </mxGeometry>
        </mxCell>
        <mxCell id="dDN7Ev0nYjmARdrbff_3-132" value="user_id" style="curved=0;startArrow=ERmandOne;startSize=10;;endArrow=ERmany;endSize=10;;exitX=1;exitY=0.73;entryX=0;entryY=0.11;rounded=0;fontSize=12;" parent="1" source="dDN7Ev0nYjmARdrbff_3-1" target="dDN7Ev0nYjmARdrbff_3-73" edge="1">
          <mxGeometry relative="1" as="geometry">
            <Array as="points">
              <mxPoint x="550" y="790" />
            </Array>
          </mxGeometry>
        </mxCell>
        <mxCell id="dDN7Ev0nYjmARdrbff_3-133" value="product_id" style="curved=1;startArrow=ERmandOne;startSize=10;;endArrow=ERmany;endSize=10;;exitX=0.5;exitY=1;entryX=0.5;entryY=0;rounded=0;fontSize=12;" parent="1" source="dDN7Ev0nYjmARdrbff_3-102" target="dDN7Ev0nYjmARdrbff_3-73" edge="1">
          <mxGeometry relative="1" as="geometry">
            <Array as="points" />
          </mxGeometry>
        </mxCell>
      </root>
    </mxGraphModel>
  </diagram>
  <diagram id="SJo8asDr793jpAbHlPrB" name="FLOWCHART">
    <mxGraphModel dx="1991" dy="1451" grid="0" gridSize="10" guides="1" tooltips="1" connect="1" arrows="1" fold="1" page="0" pageScale="1" pageWidth="850" pageHeight="1100" math="0" shadow="0">
      <root>
        <mxCell id="0" />
        <mxCell id="1" parent="0" />
        <mxCell id="oVrlTyvF-A_4aBX3ZRdt-199" value="" style="edgeStyle=none;curved=1;rounded=0;orthogonalLoop=1;jettySize=auto;html=1;fontSize=12;startSize=8;endSize=8;" parent="1" source="oVrlTyvF-A_4aBX3ZRdt-195" target="oVrlTyvF-A_4aBX3ZRdt-198" edge="1">
          <mxGeometry relative="1" as="geometry" />
        </mxCell>
        <mxCell id="oVrlTyvF-A_4aBX3ZRdt-195" value="START" style="strokeWidth=2;html=1;shape=mxgraph.flowchart.terminator;whiteSpace=wrap;" parent="1" vertex="1">
          <mxGeometry x="111" y="325" width="100" height="55" as="geometry" />
        </mxCell>
        <mxCell id="oVrlTyvF-A_4aBX3ZRdt-200" style="edgeStyle=none;curved=1;rounded=0;orthogonalLoop=1;jettySize=auto;html=1;exitX=0.5;exitY=1;exitDx=0;exitDy=0;fontSize=12;startSize=8;endSize=8;" parent="1" source="oVrlTyvF-A_4aBX3ZRdt-198" edge="1">
          <mxGeometry relative="1" as="geometry">
            <mxPoint x="161" y="549" as="targetPoint" />
          </mxGeometry>
        </mxCell>
        <mxCell id="oVrlTyvF-A_4aBX3ZRdt-201" value="Yes" style="edgeLabel;html=1;align=center;verticalAlign=middle;resizable=0;points=[];fontSize=12;" parent="oVrlTyvF-A_4aBX3ZRdt-200" vertex="1" connectable="0">
          <mxGeometry x="-0.3626" relative="1" as="geometry">
            <mxPoint as="offset" />
          </mxGeometry>
        </mxCell>
        <mxCell id="vmJWQ_1JDKpST4ib9WJc-9" style="edgeStyle=none;curved=1;rounded=0;orthogonalLoop=1;jettySize=auto;html=1;fontSize=12;startSize=8;endSize=8;" parent="1" source="oVrlTyvF-A_4aBX3ZRdt-198" edge="1">
          <mxGeometry relative="1" as="geometry">
            <mxPoint x="50" y="467" as="targetPoint" />
          </mxGeometry>
        </mxCell>
        <mxCell id="vmJWQ_1JDKpST4ib9WJc-11" value="No" style="edgeLabel;html=1;align=center;verticalAlign=middle;resizable=0;points=[];fontSize=12;" parent="vmJWQ_1JDKpST4ib9WJc-9" vertex="1" connectable="0">
          <mxGeometry x="-0.3499" y="3" relative="1" as="geometry">
            <mxPoint as="offset" />
          </mxGeometry>
        </mxCell>
        <mxCell id="oVrlTyvF-A_4aBX3ZRdt-198" value="&lt;font style=&quot;font-size: 9px;&quot;&gt;Are want to login User?&lt;/font&gt;" style="rhombus;whiteSpace=wrap;html=1;strokeWidth=2;" parent="1" vertex="1">
          <mxGeometry x="115" y="427" width="92" height="80" as="geometry" />
        </mxCell>
        <mxCell id="1ylTRdJENU4pVT3rf3BK-1" style="edgeStyle=none;curved=1;rounded=0;orthogonalLoop=1;jettySize=auto;html=1;entryX=0.5;entryY=0;entryDx=0;entryDy=0;fontSize=12;startSize=8;endSize=8;" edge="1" parent="1" source="oVrlTyvF-A_4aBX3ZRdt-207" target="oVrlTyvF-A_4aBX3ZRdt-285">
          <mxGeometry relative="1" as="geometry" />
        </mxCell>
        <mxCell id="oVrlTyvF-A_4aBX3ZRdt-207" value="Login Admin" style="rounded=0;whiteSpace=wrap;html=1;" parent="1" vertex="1">
          <mxGeometry x="-61.5" y="1453" width="98" height="47" as="geometry" />
        </mxCell>
        <mxCell id="oVrlTyvF-A_4aBX3ZRdt-211" style="edgeStyle=none;curved=1;rounded=0;orthogonalLoop=1;jettySize=auto;html=1;exitX=0;exitY=0.5;exitDx=0;exitDy=0;fontSize=12;startSize=8;endSize=8;entryX=1;entryY=0.5;entryDx=0;entryDy=0;" parent="1" source="oVrlTyvF-A_4aBX3ZRdt-209" target="oVrlTyvF-A_4aBX3ZRdt-214" edge="1">
          <mxGeometry relative="1" as="geometry">
            <mxPoint x="68" y="670.1111111111111" as="targetPoint" />
          </mxGeometry>
        </mxCell>
        <mxCell id="oVrlTyvF-A_4aBX3ZRdt-212" value="No" style="edgeLabel;html=1;align=center;verticalAlign=middle;resizable=0;points=[];fontSize=12;" parent="oVrlTyvF-A_4aBX3ZRdt-211" vertex="1" connectable="0">
          <mxGeometry x="-0.0446" y="1" relative="1" as="geometry">
            <mxPoint as="offset" />
          </mxGeometry>
        </mxCell>
        <mxCell id="oVrlTyvF-A_4aBX3ZRdt-222" style="edgeStyle=none;curved=1;rounded=0;orthogonalLoop=1;jettySize=auto;html=1;exitX=0.5;exitY=1;exitDx=0;exitDy=0;fontSize=12;startSize=8;endSize=8;" parent="1" source="oVrlTyvF-A_4aBX3ZRdt-209" target="oVrlTyvF-A_4aBX3ZRdt-216" edge="1">
          <mxGeometry relative="1" as="geometry" />
        </mxCell>
        <mxCell id="oVrlTyvF-A_4aBX3ZRdt-223" value="Yes" style="edgeLabel;html=1;align=center;verticalAlign=middle;resizable=0;points=[];fontSize=12;" parent="oVrlTyvF-A_4aBX3ZRdt-222" vertex="1" connectable="0">
          <mxGeometry x="-0.0471" y="2" relative="1" as="geometry">
            <mxPoint as="offset" />
          </mxGeometry>
        </mxCell>
        <mxCell id="oVrlTyvF-A_4aBX3ZRdt-209" value="&lt;font style=&quot;font-size: 7px;&quot;&gt;Are you already have account?&lt;/font&gt;" style="rhombus;whiteSpace=wrap;html=1;strokeWidth=2;" parent="1" vertex="1">
          <mxGeometry x="118" y="554" width="89" height="80" as="geometry" />
        </mxCell>
        <mxCell id="oVrlTyvF-A_4aBX3ZRdt-226" style="edgeStyle=none;curved=0;rounded=0;orthogonalLoop=1;jettySize=auto;html=1;fontSize=12;startSize=8;endSize=8;" parent="1" source="oVrlTyvF-A_4aBX3ZRdt-214" edge="1">
          <mxGeometry relative="1" as="geometry">
            <mxPoint x="112" y="709" as="targetPoint" />
            <Array as="points">
              <mxPoint x="16" y="709" />
            </Array>
          </mxGeometry>
        </mxCell>
        <mxCell id="oVrlTyvF-A_4aBX3ZRdt-214" value="REGISTER" style="shape=process;whiteSpace=wrap;html=1;backgroundOutline=1;" parent="1" vertex="1">
          <mxGeometry x="-30" y="573" width="91" height="42" as="geometry" />
        </mxCell>
        <mxCell id="oVrlTyvF-A_4aBX3ZRdt-225" style="edgeStyle=none;curved=1;rounded=0;orthogonalLoop=1;jettySize=auto;html=1;fontSize=12;startSize=8;endSize=8;" parent="1" source="oVrlTyvF-A_4aBX3ZRdt-216" edge="1">
          <mxGeometry relative="1" as="geometry">
            <mxPoint x="162" y="767.148148148148" as="targetPoint" />
          </mxGeometry>
        </mxCell>
        <mxCell id="oVrlTyvF-A_4aBX3ZRdt-216" value="Login User" style="rounded=0;whiteSpace=wrap;html=1;" parent="1" vertex="1">
          <mxGeometry x="113" y="688" width="98" height="42" as="geometry" />
        </mxCell>
        <mxCell id="oVrlTyvF-A_4aBX3ZRdt-276" style="edgeStyle=none;curved=0;rounded=0;orthogonalLoop=1;jettySize=auto;html=1;exitX=1;exitY=0.5;exitDx=0;exitDy=0;fontSize=12;startSize=8;endSize=8;" parent="1" source="oVrlTyvF-A_4aBX3ZRdt-217" edge="1">
          <mxGeometry relative="1" as="geometry">
            <mxPoint x="212.909090909091" y="705.3939393939395" as="targetPoint" />
            <Array as="points">
              <mxPoint x="235" y="811" />
              <mxPoint x="235" y="705" />
            </Array>
          </mxGeometry>
        </mxCell>
        <mxCell id="oVrlTyvF-A_4aBX3ZRdt-279" value="No" style="edgeLabel;html=1;align=center;verticalAlign=middle;resizable=0;points=[];fontSize=12;" parent="oVrlTyvF-A_4aBX3ZRdt-276" vertex="1" connectable="0">
          <mxGeometry x="0.0542" y="-1" relative="1" as="geometry">
            <mxPoint as="offset" />
          </mxGeometry>
        </mxCell>
        <mxCell id="vmJWQ_1JDKpST4ib9WJc-3" style="edgeStyle=none;curved=1;rounded=0;orthogonalLoop=1;jettySize=auto;html=1;exitX=0.5;exitY=1;exitDx=0;exitDy=0;entryX=0.5;entryY=0;entryDx=0;entryDy=0;fontSize=12;startSize=8;endSize=8;" parent="1" source="oVrlTyvF-A_4aBX3ZRdt-217" target="oVrlTyvF-A_4aBX3ZRdt-227" edge="1">
          <mxGeometry relative="1" as="geometry" />
        </mxCell>
        <mxCell id="vmJWQ_1JDKpST4ib9WJc-4" value="Yes" style="edgeLabel;html=1;align=center;verticalAlign=middle;resizable=0;points=[];fontSize=12;" parent="vmJWQ_1JDKpST4ib9WJc-3" vertex="1" connectable="0">
          <mxGeometry x="0.0203" y="-6" relative="1" as="geometry">
            <mxPoint as="offset" />
          </mxGeometry>
        </mxCell>
        <mxCell id="oVrlTyvF-A_4aBX3ZRdt-217" value="Login Correct?" style="rhombus;whiteSpace=wrap;html=1;" parent="1" vertex="1">
          <mxGeometry x="112.25" y="771" width="100.5" height="80" as="geometry" />
        </mxCell>
        <mxCell id="vmJWQ_1JDKpST4ib9WJc-6" style="edgeStyle=none;curved=1;rounded=0;orthogonalLoop=1;jettySize=auto;html=1;fontSize=12;startSize=8;endSize=8;entryX=0.5;entryY=0;entryDx=0;entryDy=0;" parent="1" source="oVrlTyvF-A_4aBX3ZRdt-227" target="vmJWQ_1JDKpST4ib9WJc-5" edge="1">
          <mxGeometry relative="1" as="geometry">
            <mxPoint x="162.00000000000023" y="965.75" as="targetPoint" />
          </mxGeometry>
        </mxCell>
        <mxCell id="vmJWQ_1JDKpST4ib9WJc-7" style="edgeStyle=none;curved=1;rounded=0;orthogonalLoop=1;jettySize=auto;html=1;entryX=1;entryY=0.5;entryDx=0;entryDy=0;fontSize=12;startSize=8;endSize=8;" parent="1" source="oVrlTyvF-A_4aBX3ZRdt-227" target="oVrlTyvF-A_4aBX3ZRdt-251" edge="1">
          <mxGeometry relative="1" as="geometry" />
        </mxCell>
        <mxCell id="vmJWQ_1JDKpST4ib9WJc-27" value="" style="edgeStyle=none;curved=1;rounded=0;orthogonalLoop=1;jettySize=auto;html=1;fontSize=12;startSize=8;endSize=8;" parent="1" source="oVrlTyvF-A_4aBX3ZRdt-227" target="vmJWQ_1JDKpST4ib9WJc-26" edge="1">
          <mxGeometry relative="1" as="geometry" />
        </mxCell>
        <mxCell id="oVrlTyvF-A_4aBX3ZRdt-227" value="HOMEPAGE" style="whiteSpace=wrap;html=1;" parent="1" vertex="1">
          <mxGeometry x="118" y="896" width="88" height="45" as="geometry" />
        </mxCell>
        <mxCell id="oVrlTyvF-A_4aBX3ZRdt-237" value="" style="edgeStyle=none;curved=1;rounded=0;orthogonalLoop=1;jettySize=auto;html=1;fontSize=12;startSize=8;endSize=8;" parent="1" source="oVrlTyvF-A_4aBX3ZRdt-234" target="oVrlTyvF-A_4aBX3ZRdt-236" edge="1">
          <mxGeometry relative="1" as="geometry" />
        </mxCell>
        <mxCell id="oVrlTyvF-A_4aBX3ZRdt-238" value="Yes" style="edgeLabel;html=1;align=center;verticalAlign=middle;resizable=0;points=[];fontSize=12;" parent="oVrlTyvF-A_4aBX3ZRdt-237" vertex="1" connectable="0">
          <mxGeometry x="-0.4218" y="1" relative="1" as="geometry">
            <mxPoint as="offset" />
          </mxGeometry>
        </mxCell>
        <mxCell id="oVrlTyvF-A_4aBX3ZRdt-239" style="edgeStyle=none;curved=1;rounded=0;orthogonalLoop=1;jettySize=auto;html=1;exitX=0.5;exitY=1;exitDx=0;exitDy=0;fontSize=12;startSize=8;endSize=8;" parent="1" source="oVrlTyvF-A_4aBX3ZRdt-234" edge="1">
          <mxGeometry relative="1" as="geometry">
            <mxPoint x="370.28787878787875" y="570.1212121212122" as="targetPoint" />
          </mxGeometry>
        </mxCell>
        <mxCell id="oVrlTyvF-A_4aBX3ZRdt-240" value="No" style="edgeLabel;html=1;align=center;verticalAlign=middle;resizable=0;points=[];fontSize=12;" parent="oVrlTyvF-A_4aBX3ZRdt-239" vertex="1" connectable="0">
          <mxGeometry x="-0.0805" relative="1" as="geometry">
            <mxPoint as="offset" />
          </mxGeometry>
        </mxCell>
        <mxCell id="oVrlTyvF-A_4aBX3ZRdt-234" value="&lt;font style=&quot;font-size: 10px;&quot;&gt;Do You want to Customized?&lt;/font&gt;" style="rhombus;whiteSpace=wrap;html=1;" parent="1" vertex="1">
          <mxGeometry x="315" y="436" width="104" height="80" as="geometry" />
        </mxCell>
        <mxCell id="vmJWQ_1JDKpST4ib9WJc-29" style="edgeStyle=none;curved=1;rounded=0;orthogonalLoop=1;jettySize=auto;html=1;entryX=0.5;entryY=0;entryDx=0;entryDy=0;fontSize=12;startSize=8;endSize=8;" parent="1" source="oVrlTyvF-A_4aBX3ZRdt-236" target="oVrlTyvF-A_4aBX3ZRdt-252" edge="1">
          <mxGeometry relative="1" as="geometry" />
        </mxCell>
        <mxCell id="oVrlTyvF-A_4aBX3ZRdt-236" value="Customizing" style="whiteSpace=wrap;html=1;" parent="1" vertex="1">
          <mxGeometry x="512" y="454" width="92" height="44" as="geometry" />
        </mxCell>
        <mxCell id="oVrlTyvF-A_4aBX3ZRdt-243" value="" style="edgeStyle=none;curved=1;rounded=0;orthogonalLoop=1;jettySize=auto;html=1;fontSize=12;startSize=8;endSize=8;" parent="1" source="oVrlTyvF-A_4aBX3ZRdt-241" edge="1">
          <mxGeometry relative="1" as="geometry">
            <mxPoint x="375.3758620689657" y="649.0000000000002" as="targetPoint" />
          </mxGeometry>
        </mxCell>
        <mxCell id="oVrlTyvF-A_4aBX3ZRdt-241" value="Apparel Shop" style="rounded=0;whiteSpace=wrap;html=1;" parent="1" vertex="1">
          <mxGeometry x="327.5" y="572" width="95" height="45" as="geometry" />
        </mxCell>
        <mxCell id="oVrlTyvF-A_4aBX3ZRdt-258" style="edgeStyle=none;curved=1;rounded=0;orthogonalLoop=1;jettySize=auto;html=1;fontSize=12;startSize=8;endSize=8;" parent="1" source="oVrlTyvF-A_4aBX3ZRdt-244" target="oVrlTyvF-A_4aBX3ZRdt-249" edge="1">
          <mxGeometry relative="1" as="geometry" />
        </mxCell>
        <mxCell id="oVrlTyvF-A_4aBX3ZRdt-244" value="Save Custom Apparel" style="rounded=0;whiteSpace=wrap;html=1;" parent="1" vertex="1">
          <mxGeometry x="512" y="666" width="97" height="41" as="geometry" />
        </mxCell>
        <mxCell id="vmJWQ_1JDKpST4ib9WJc-33" value="" style="edgeStyle=none;curved=1;rounded=0;orthogonalLoop=1;jettySize=auto;html=1;fontSize=12;startSize=8;endSize=8;" parent="1" source="oVrlTyvF-A_4aBX3ZRdt-249" target="oVrlTyvF-A_4aBX3ZRdt-260" edge="1">
          <mxGeometry relative="1" as="geometry" />
        </mxCell>
        <mxCell id="oVrlTyvF-A_4aBX3ZRdt-249" value="Fill Up&amp;nbsp;&lt;div&gt;Order Form&lt;/div&gt;" style="shape=parallelogram;perimeter=parallelogramPerimeter;whiteSpace=wrap;html=1;fixedSize=1;" parent="1" vertex="1">
          <mxGeometry x="504" y="736" width="108" height="53" as="geometry" />
        </mxCell>
        <mxCell id="oVrlTyvF-A_4aBX3ZRdt-251" value="Log Out" style="rounded=0;whiteSpace=wrap;html=1;" parent="1" vertex="1">
          <mxGeometry x="-21" y="899.5" width="92" height="38" as="geometry" />
        </mxCell>
        <mxCell id="vmJWQ_1JDKpST4ib9WJc-36" style="edgeStyle=none;curved=1;rounded=0;orthogonalLoop=1;jettySize=auto;html=1;fontSize=12;startSize=8;endSize=8;" parent="1" source="oVrlTyvF-A_4aBX3ZRdt-252" edge="1">
          <mxGeometry relative="1" as="geometry">
            <mxPoint x="558" y="665.7058823529412" as="targetPoint" />
          </mxGeometry>
        </mxCell>
        <mxCell id="vmJWQ_1JDKpST4ib9WJc-37" value="Yes" style="edgeLabel;html=1;align=center;verticalAlign=middle;resizable=0;points=[];fontSize=12;" parent="vmJWQ_1JDKpST4ib9WJc-36" vertex="1" connectable="0">
          <mxGeometry x="-0.2105" relative="1" as="geometry">
            <mxPoint as="offset" />
          </mxGeometry>
        </mxCell>
        <mxCell id="vmJWQ_1JDKpST4ib9WJc-39" style="edgeStyle=none;curved=0;rounded=0;orthogonalLoop=1;jettySize=auto;html=1;fontSize=12;startSize=8;endSize=8;" parent="1" source="oVrlTyvF-A_4aBX3ZRdt-252" edge="1">
          <mxGeometry relative="1" as="geometry">
            <mxPoint x="608.5294117647059" y="477.47058823529414" as="targetPoint" />
            <Array as="points">
              <mxPoint x="659" y="576" />
              <mxPoint x="659" y="477" />
            </Array>
          </mxGeometry>
        </mxCell>
        <mxCell id="vmJWQ_1JDKpST4ib9WJc-40" value="NO" style="edgeLabel;html=1;align=center;verticalAlign=middle;resizable=0;points=[];fontSize=12;" parent="vmJWQ_1JDKpST4ib9WJc-39" vertex="1" connectable="0">
          <mxGeometry x="0.104" relative="1" as="geometry">
            <mxPoint as="offset" />
          </mxGeometry>
        </mxCell>
        <mxCell id="oVrlTyvF-A_4aBX3ZRdt-252" value="&lt;font style=&quot;font-size: 11px;&quot;&gt;Final Design?&lt;/font&gt;" style="rhombus;whiteSpace=wrap;html=1;" parent="1" vertex="1">
          <mxGeometry x="507.5" y="541" width="101" height="80" as="geometry" />
        </mxCell>
        <mxCell id="vmJWQ_1JDKpST4ib9WJc-41" style="edgeStyle=none;curved=1;rounded=0;orthogonalLoop=1;jettySize=auto;html=1;fontSize=12;startSize=8;endSize=8;" parent="1" source="oVrlTyvF-A_4aBX3ZRdt-260" target="oVrlTyvF-A_4aBX3ZRdt-265" edge="1">
          <mxGeometry relative="1" as="geometry" />
        </mxCell>
        <mxCell id="oVrlTyvF-A_4aBX3ZRdt-260" value="Submit Order" style="rounded=0;whiteSpace=wrap;html=1;" parent="1" vertex="1">
          <mxGeometry x="502" y="825" width="102" height="46" as="geometry" />
        </mxCell>
        <mxCell id="vmJWQ_1JDKpST4ib9WJc-28" style="edgeStyle=none;curved=1;rounded=0;orthogonalLoop=1;jettySize=auto;html=1;exitX=0.5;exitY=1;exitDx=0;exitDy=0;entryX=0.5;entryY=0;entryDx=0;entryDy=0;fontSize=12;startSize=8;endSize=8;" parent="1" source="oVrlTyvF-A_4aBX3ZRdt-262" target="oVrlTyvF-A_4aBX3ZRdt-283" edge="1">
          <mxGeometry relative="1" as="geometry" />
        </mxCell>
        <mxCell id="oVrlTyvF-A_4aBX3ZRdt-262" value="Fill Up&amp;nbsp;&lt;div&gt;Order Form&lt;/div&gt;" style="shape=parallelogram;perimeter=parallelogramPerimeter;whiteSpace=wrap;html=1;fixedSize=1;" parent="1" vertex="1">
          <mxGeometry x="315" y="765" width="120" height="52" as="geometry" />
        </mxCell>
        <mxCell id="oVrlTyvF-A_4aBX3ZRdt-273" value="" style="edgeStyle=none;curved=1;rounded=0;orthogonalLoop=1;jettySize=auto;html=1;fontSize=12;startSize=8;endSize=8;" parent="1" source="oVrlTyvF-A_4aBX3ZRdt-265" target="oVrlTyvF-A_4aBX3ZRdt-272" edge="1">
          <mxGeometry relative="1" as="geometry" />
        </mxCell>
        <mxCell id="oVrlTyvF-A_4aBX3ZRdt-265" value="Order History" style="rounded=0;whiteSpace=wrap;html=1;" parent="1" vertex="1">
          <mxGeometry x="429" y="957" width="101" height="59" as="geometry" />
        </mxCell>
        <mxCell id="oVrlTyvF-A_4aBX3ZRdt-268" style="edgeStyle=none;curved=1;rounded=0;orthogonalLoop=1;jettySize=auto;html=1;exitX=0.5;exitY=1;exitDx=0;exitDy=0;fontSize=12;startSize=8;endSize=8;entryX=0.5;entryY=0;entryDx=0;entryDy=0;" parent="1" source="oVrlTyvF-A_4aBX3ZRdt-267" target="oVrlTyvF-A_4aBX3ZRdt-262" edge="1">
          <mxGeometry relative="1" as="geometry">
            <mxPoint x="375" y="743" as="targetPoint" />
          </mxGeometry>
        </mxCell>
        <mxCell id="oVrlTyvF-A_4aBX3ZRdt-269" value="Yes" style="edgeLabel;html=1;align=center;verticalAlign=middle;resizable=0;points=[];fontSize=12;" parent="oVrlTyvF-A_4aBX3ZRdt-268" vertex="1" connectable="0">
          <mxGeometry x="-0.2308" y="-2" relative="1" as="geometry">
            <mxPoint as="offset" />
          </mxGeometry>
        </mxCell>
        <mxCell id="oVrlTyvF-A_4aBX3ZRdt-270" style="edgeStyle=none;curved=0;rounded=0;orthogonalLoop=1;jettySize=auto;html=1;fontSize=12;startSize=8;endSize=8;" parent="1" edge="1">
          <mxGeometry relative="1" as="geometry">
            <mxPoint x="423.5" y="594" as="targetPoint" />
            <mxPoint x="432.25" y="682.5" as="sourcePoint" />
            <Array as="points">
              <mxPoint x="460.5" y="682.5" />
              <mxPoint x="459.5" y="594" />
            </Array>
          </mxGeometry>
        </mxCell>
        <mxCell id="oVrlTyvF-A_4aBX3ZRdt-267" value="Apparel Final&amp;nbsp;&lt;div&gt;Order?&lt;/div&gt;" style="rhombus;whiteSpace=wrap;html=1;" parent="1" vertex="1">
          <mxGeometry x="317.75" y="649" width="114.5" height="68" as="geometry" />
        </mxCell>
        <mxCell id="vmJWQ_1JDKpST4ib9WJc-43" style="edgeStyle=none;curved=1;rounded=0;orthogonalLoop=1;jettySize=auto;html=1;fontSize=12;startSize=8;endSize=8;" parent="1" source="oVrlTyvF-A_4aBX3ZRdt-272" edge="1">
          <mxGeometry relative="1" as="geometry">
            <mxPoint x="483.5" y="1133.9411764705883" as="targetPoint" />
          </mxGeometry>
        </mxCell>
        <mxCell id="oVrlTyvF-A_4aBX3ZRdt-272" value="Log Out" style="whiteSpace=wrap;html=1;rounded=0;" parent="1" vertex="1">
          <mxGeometry x="429" y="1059" width="109" height="47" as="geometry" />
        </mxCell>
        <mxCell id="vmJWQ_1JDKpST4ib9WJc-42" style="edgeStyle=none;curved=1;rounded=0;orthogonalLoop=1;jettySize=auto;html=1;fontSize=12;startSize=8;endSize=8;" parent="1" source="oVrlTyvF-A_4aBX3ZRdt-283" edge="1">
          <mxGeometry relative="1" as="geometry">
            <mxPoint x="466.17647058823536" y="956.294117647059" as="targetPoint" />
          </mxGeometry>
        </mxCell>
        <mxCell id="oVrlTyvF-A_4aBX3ZRdt-283" value="Submit Order" style="rounded=0;whiteSpace=wrap;html=1;" parent="1" vertex="1">
          <mxGeometry x="324" y="847" width="102" height="45" as="geometry" />
        </mxCell>
        <mxCell id="oVrlTyvF-A_4aBX3ZRdt-292" value="" style="edgeStyle=none;curved=1;rounded=0;orthogonalLoop=1;jettySize=auto;html=1;fontSize=12;startSize=8;endSize=8;" parent="1" source="oVrlTyvF-A_4aBX3ZRdt-285" target="oVrlTyvF-A_4aBX3ZRdt-291" edge="1">
          <mxGeometry relative="1" as="geometry" />
        </mxCell>
        <mxCell id="oVrlTyvF-A_4aBX3ZRdt-293" value="Yes" style="edgeLabel;html=1;align=center;verticalAlign=middle;resizable=0;points=[];fontSize=12;" parent="oVrlTyvF-A_4aBX3ZRdt-292" vertex="1" connectable="0">
          <mxGeometry x="-0.4258" y="-2" relative="1" as="geometry">
            <mxPoint as="offset" />
          </mxGeometry>
        </mxCell>
        <mxCell id="1ylTRdJENU4pVT3rf3BK-2" style="edgeStyle=none;curved=0;rounded=0;orthogonalLoop=1;jettySize=auto;html=1;entryX=1;entryY=0.5;entryDx=0;entryDy=0;fontSize=12;startSize=8;endSize=8;" edge="1" parent="1" source="oVrlTyvF-A_4aBX3ZRdt-285" target="oVrlTyvF-A_4aBX3ZRdt-207">
          <mxGeometry relative="1" as="geometry">
            <Array as="points">
              <mxPoint x="78" y="1584" />
              <mxPoint x="78" y="1477" />
            </Array>
          </mxGeometry>
        </mxCell>
        <mxCell id="1ylTRdJENU4pVT3rf3BK-3" value="No" style="edgeLabel;html=1;align=center;verticalAlign=middle;resizable=0;points=[];fontSize=12;" vertex="1" connectable="0" parent="1ylTRdJENU4pVT3rf3BK-2">
          <mxGeometry x="0.096" y="-3" relative="1" as="geometry">
            <mxPoint as="offset" />
          </mxGeometry>
        </mxCell>
        <mxCell id="oVrlTyvF-A_4aBX3ZRdt-285" value="Login Correct?" style="rhombus;whiteSpace=wrap;html=1;rounded=0;" parent="1" vertex="1">
          <mxGeometry x="-62.5" y="1544.25" width="100" height="80" as="geometry" />
        </mxCell>
        <mxCell id="oVrlTyvF-A_4aBX3ZRdt-295" value="" style="edgeStyle=none;curved=1;rounded=0;orthogonalLoop=1;jettySize=auto;html=1;fontSize=12;startSize=8;endSize=8;" parent="1" source="oVrlTyvF-A_4aBX3ZRdt-291" target="oVrlTyvF-A_4aBX3ZRdt-294" edge="1">
          <mxGeometry relative="1" as="geometry" />
        </mxCell>
        <mxCell id="oVrlTyvF-A_4aBX3ZRdt-291" value="Admin DashBoard" style="whiteSpace=wrap;html=1;rounded=0;" parent="1" vertex="1">
          <mxGeometry x="-69" y="1681" width="113" height="49" as="geometry" />
        </mxCell>
        <mxCell id="oVrlTyvF-A_4aBX3ZRdt-294" value="&amp;nbsp;User Order" style="whiteSpace=wrap;html=1;rounded=0;" parent="1" vertex="1">
          <mxGeometry x="-69" y="1764" width="113" height="49" as="geometry" />
        </mxCell>
        <mxCell id="1ylTRdJENU4pVT3rf3BK-8" style="edgeStyle=none;curved=1;rounded=0;orthogonalLoop=1;jettySize=auto;html=1;entryX=0.5;entryY=0;entryDx=0;entryDy=0;fontSize=12;startSize=8;endSize=8;" edge="1" parent="1" target="oVrlTyvF-A_4aBX3ZRdt-307">
          <mxGeometry relative="1" as="geometry">
            <mxPoint x="238.3295454545455" y="1487" as="sourcePoint" />
          </mxGeometry>
        </mxCell>
        <mxCell id="oVrlTyvF-A_4aBX3ZRdt-297" value="Admin Product" style="rounded=0;whiteSpace=wrap;html=1;" parent="1" vertex="1">
          <mxGeometry x="184" y="1446" width="120" height="44" as="geometry" />
        </mxCell>
        <mxCell id="oVrlTyvF-A_4aBX3ZRdt-301" value="" style="edgeStyle=none;curved=1;rounded=0;orthogonalLoop=1;jettySize=auto;html=1;fontSize=12;startSize=8;endSize=8;" parent="1" source="oVrlTyvF-A_4aBX3ZRdt-298" target="oVrlTyvF-A_4aBX3ZRdt-300" edge="1">
          <mxGeometry relative="1" as="geometry" />
        </mxCell>
        <mxCell id="oVrlTyvF-A_4aBX3ZRdt-304" value="Yes" style="edgeLabel;html=1;align=center;verticalAlign=middle;resizable=0;points=[];fontSize=12;" parent="oVrlTyvF-A_4aBX3ZRdt-301" vertex="1" connectable="0">
          <mxGeometry x="-0.303" relative="1" as="geometry">
            <mxPoint as="offset" />
          </mxGeometry>
        </mxCell>
        <mxCell id="1ylTRdJENU4pVT3rf3BK-10" style="edgeStyle=none;curved=0;rounded=0;orthogonalLoop=1;jettySize=auto;html=1;exitX=0;exitY=0.5;exitDx=0;exitDy=0;fontSize=12;startSize=8;endSize=8;" edge="1" parent="1" source="oVrlTyvF-A_4aBX3ZRdt-298">
          <mxGeometry relative="1" as="geometry">
            <mxPoint x="-71" y="1874" as="targetPoint" />
            <Array as="points">
              <mxPoint x="-125" y="1971" />
              <mxPoint x="-125" y="1874" />
            </Array>
          </mxGeometry>
        </mxCell>
        <mxCell id="1ylTRdJENU4pVT3rf3BK-11" value="No" style="edgeLabel;html=1;align=center;verticalAlign=middle;resizable=0;points=[];fontSize=12;" vertex="1" connectable="0" parent="1ylTRdJENU4pVT3rf3BK-10">
          <mxGeometry x="0.135" y="3" relative="1" as="geometry">
            <mxPoint as="offset" />
          </mxGeometry>
        </mxCell>
        <mxCell id="oVrlTyvF-A_4aBX3ZRdt-298" value="Update User&amp;nbsp;&lt;div&gt;Orders&lt;/div&gt;" style="rhombus;whiteSpace=wrap;html=1;rounded=0;" parent="1" vertex="1">
          <mxGeometry x="-69" y="1928" width="112" height="80" as="geometry" />
        </mxCell>
        <mxCell id="1ylTRdJENU4pVT3rf3BK-13" value="" style="edgeStyle=none;curved=1;rounded=0;orthogonalLoop=1;jettySize=auto;html=1;fontSize=12;startSize=8;endSize=8;" edge="1" parent="1" source="oVrlTyvF-A_4aBX3ZRdt-300" target="1ylTRdJENU4pVT3rf3BK-12">
          <mxGeometry relative="1" as="geometry" />
        </mxCell>
        <mxCell id="oVrlTyvF-A_4aBX3ZRdt-300" value="Action" style="whiteSpace=wrap;html=1;rounded=0;" parent="1" vertex="1">
          <mxGeometry x="-62.5" y="2059" width="95" height="37.75" as="geometry" />
        </mxCell>
        <mxCell id="oVrlTyvF-A_4aBX3ZRdt-303" value="View user orders" style="rounded=0;whiteSpace=wrap;html=1;" parent="1" vertex="1">
          <mxGeometry x="-69" y="1849" width="120" height="49" as="geometry" />
        </mxCell>
        <mxCell id="oVrlTyvF-A_4aBX3ZRdt-311" value="" style="edgeStyle=none;curved=1;rounded=0;orthogonalLoop=1;jettySize=auto;html=1;fontSize=12;startSize=8;endSize=8;" parent="1" source="oVrlTyvF-A_4aBX3ZRdt-307" target="oVrlTyvF-A_4aBX3ZRdt-310" edge="1">
          <mxGeometry relative="1" as="geometry" />
        </mxCell>
        <mxCell id="oVrlTyvF-A_4aBX3ZRdt-312" value="Yes" style="edgeLabel;html=1;align=center;verticalAlign=middle;resizable=0;points=[];fontSize=12;" parent="oVrlTyvF-A_4aBX3ZRdt-311" vertex="1" connectable="0">
          <mxGeometry x="-0.1909" relative="1" as="geometry">
            <mxPoint as="offset" />
          </mxGeometry>
        </mxCell>
        <mxCell id="oVrlTyvF-A_4aBX3ZRdt-307" value="Do you want add product?" style="rhombus;whiteSpace=wrap;html=1;rounded=0;" parent="1" vertex="1">
          <mxGeometry x="174.5" y="1545" width="127" height="80" as="geometry" />
        </mxCell>
        <mxCell id="oVrlTyvF-A_4aBX3ZRdt-316" value="" style="edgeStyle=none;curved=1;rounded=0;orthogonalLoop=1;jettySize=auto;html=1;fontSize=12;startSize=8;endSize=8;" parent="1" source="oVrlTyvF-A_4aBX3ZRdt-310" target="oVrlTyvF-A_4aBX3ZRdt-315" edge="1">
          <mxGeometry relative="1" as="geometry" />
        </mxCell>
        <mxCell id="oVrlTyvF-A_4aBX3ZRdt-310" value="Add New Product in Apparel Shop" style="whiteSpace=wrap;html=1;rounded=0;" parent="1" vertex="1">
          <mxGeometry x="184" y="1666" width="108" height="53" as="geometry" />
        </mxCell>
        <mxCell id="oVrlTyvF-A_4aBX3ZRdt-321" value="" style="edgeStyle=none;curved=1;rounded=0;orthogonalLoop=1;jettySize=auto;html=1;fontSize=12;startSize=8;endSize=8;" parent="1" source="oVrlTyvF-A_4aBX3ZRdt-315" target="oVrlTyvF-A_4aBX3ZRdt-320" edge="1">
          <mxGeometry relative="1" as="geometry" />
        </mxCell>
        <mxCell id="oVrlTyvF-A_4aBX3ZRdt-315" value="&lt;font style=&quot;font-size: 10px;&quot;&gt;Do you want To&amp;nbsp;&lt;/font&gt;&lt;div&gt;&lt;font style=&quot;font-size: 10px;&quot;&gt;Update Product?&lt;/font&gt;&lt;/div&gt;" style="rhombus;whiteSpace=wrap;html=1;rounded=0;" parent="1" vertex="1">
          <mxGeometry x="169.99999999999994" y="1756.9999999999995" width="136" height="80" as="geometry" />
        </mxCell>
        <mxCell id="oVrlTyvF-A_4aBX3ZRdt-325" value="" style="edgeStyle=none;curved=1;rounded=0;orthogonalLoop=1;jettySize=auto;html=1;fontSize=12;startSize=8;endSize=8;" parent="1" source="oVrlTyvF-A_4aBX3ZRdt-320" edge="1">
          <mxGeometry relative="1" as="geometry">
            <mxPoint x="402" y="1734.2999999999997" as="targetPoint" />
          </mxGeometry>
        </mxCell>
        <mxCell id="oVrlTyvF-A_4aBX3ZRdt-333" style="edgeStyle=none;curved=1;rounded=0;orthogonalLoop=1;jettySize=auto;html=1;entryX=0.5;entryY=0;entryDx=0;entryDy=0;fontSize=12;startSize=8;endSize=8;" parent="1" source="oVrlTyvF-A_4aBX3ZRdt-320" edge="1">
          <mxGeometry relative="1" as="geometry">
            <mxPoint x="402" y="1858.2999999999997" as="targetPoint" />
          </mxGeometry>
        </mxCell>
        <mxCell id="oVrlTyvF-A_4aBX3ZRdt-320" value="Update Price or Image&amp;nbsp;" style="whiteSpace=wrap;html=1;rounded=0;" parent="1" vertex="1">
          <mxGeometry x="348" y="1777.5499999999997" width="108" height="48.5" as="geometry" />
        </mxCell>
        <mxCell id="oVrlTyvF-A_4aBX3ZRdt-330" value="" style="edgeStyle=none;curved=1;rounded=0;orthogonalLoop=1;jettySize=auto;html=1;fontSize=12;startSize=8;endSize=8;" parent="1" source="oVrlTyvF-A_4aBX3ZRdt-326" edge="1">
          <mxGeometry relative="1" as="geometry">
            <mxPoint x="402" y="1611.2999999999997" as="targetPoint" />
          </mxGeometry>
        </mxCell>
        <mxCell id="oVrlTyvF-A_4aBX3ZRdt-331" value="Yes" style="edgeLabel;html=1;align=center;verticalAlign=middle;resizable=0;points=[];fontSize=12;" parent="oVrlTyvF-A_4aBX3ZRdt-330" vertex="1" connectable="0">
          <mxGeometry x="-0.3012" y="1" relative="1" as="geometry">
            <mxPoint as="offset" />
          </mxGeometry>
        </mxCell>
        <mxCell id="oVrlTyvF-A_4aBX3ZRdt-326" value="&lt;font style=&quot;font-size: 11px;&quot;&gt;Do you want Delete&amp;nbsp;&lt;/font&gt;&lt;div style=&quot;font-size: 11px;&quot;&gt;&lt;font style=&quot;font-size: 11px;&quot;&gt;Products?&lt;/font&gt;&lt;/div&gt;" style="rhombus;whiteSpace=wrap;html=1;" parent="1" vertex="1">
          <mxGeometry x="336.5" y="1651.2999999999997" width="131" height="80" as="geometry" />
        </mxCell>
        <mxCell id="oVrlTyvF-A_4aBX3ZRdt-329" value="Delete Products" style="whiteSpace=wrap;html=1;" parent="1" vertex="1">
          <mxGeometry x="345" y="1556.3" width="120" height="50" as="geometry" />
        </mxCell>
        <mxCell id="oVrlTyvF-A_4aBX3ZRdt-332" value="Log Out" style="whiteSpace=wrap;html=1;rounded=0;" parent="1" vertex="1">
          <mxGeometry x="348" y="1860.2999999999997" width="109" height="47" as="geometry" />
        </mxCell>
        <mxCell id="oBVutVz2EW0mZc9ziFfA-1" value="" style="html=1;overflow=block;blockSpacing=1;whiteSpace=wrap;fontSize=13;align=center;spacing=3.8;fillOpacity=100;rounded=1;absoluteArcSize=1;arcSize=9;strokeWidth=NaN;lucidId=Wzu8-5q-uYTT;" parent="1" vertex="1">
          <mxGeometry x="401" y="-349" width="563" height="220" as="geometry" />
        </mxCell>
        <mxCell id="oBVutVz2EW0mZc9ziFfA-2" value="Decision" style="html=1;overflow=block;blockSpacing=1;whiteSpace=wrap;rhombus;fontSize=16.7;align=center;spacing=3.8;fillOpacity=100;rounded=1;absoluteArcSize=1;arcSize=9;strokeWidth=NaN;lucidId=1ef8K1F5j5g7;" parent="1" vertex="1">
          <mxGeometry x="565" y="-326" width="120" height="90" as="geometry" />
        </mxCell>
        <mxCell id="oBVutVz2EW0mZc9ziFfA-5" value="Process" style="html=1;overflow=block;blockSpacing=1;whiteSpace=wrap;fontSize=16.7;align=center;spacing=9;fillOpacity=100;rounded=1;absoluteArcSize=1;arcSize=9;strokeWidth=NaN;lucidId=kff8Qq_T6yA8;" parent="1" vertex="1">
          <mxGeometry x="519" y="-226" width="120" height="53" as="geometry" />
        </mxCell>
        <mxCell id="oBVutVz2EW0mZc9ziFfA-9" value="Predefined Process" style="shape=process;whiteSpace=wrap;html=1;backgroundOutline=1;" parent="1" vertex="1">
          <mxGeometry x="678" y="-233" width="120" height="60" as="geometry" />
        </mxCell>
        <mxCell id="oBVutVz2EW0mZc9ziFfA-10" value="Data" style="shape=parallelogram;perimeter=parallelogramPerimeter;whiteSpace=wrap;html=1;fixedSize=1;" parent="1" vertex="1">
          <mxGeometry x="822" y="-236" width="120" height="60" as="geometry" />
        </mxCell>
        <mxCell id="oBVutVz2EW0mZc9ziFfA-11" value="Terminator" style="strokeWidth=2;html=1;shape=mxgraph.flowchart.terminator;whiteSpace=wrap;" parent="1" vertex="1">
          <mxGeometry x="808" y="-304" width="100" height="46" as="geometry" />
        </mxCell>
        <mxCell id="vmJWQ_1JDKpST4ib9WJc-5" value="&lt;font style=&quot;font-size: 16px;&quot;&gt;A&lt;/font&gt;" style="ellipse;whiteSpace=wrap;html=1;aspect=fixed;" parent="1" vertex="1">
          <mxGeometry x="136.5" y="975" width="54" height="54" as="geometry" />
        </mxCell>
        <mxCell id="vmJWQ_1JDKpST4ib9WJc-13" value="" style="edgeStyle=none;curved=1;rounded=0;orthogonalLoop=1;jettySize=auto;html=1;fontSize=12;startSize=8;endSize=8;" parent="1" target="oVrlTyvF-A_4aBX3ZRdt-234" edge="1">
          <mxGeometry relative="1" as="geometry">
            <mxPoint x="367" y="393" as="sourcePoint" />
          </mxGeometry>
        </mxCell>
        <mxCell id="vmJWQ_1JDKpST4ib9WJc-8" value="&lt;font style=&quot;font-size: 16px;&quot;&gt;A&lt;/font&gt;" style="ellipse;whiteSpace=wrap;html=1;aspect=fixed;" parent="1" vertex="1">
          <mxGeometry x="337" y="336" width="59" height="59" as="geometry" />
        </mxCell>
        <mxCell id="vmJWQ_1JDKpST4ib9WJc-10" value="&lt;p style=&quot;line-height: 130%;&quot;&gt;&lt;font style=&quot;font-size: 22px;&quot;&gt;A&lt;/font&gt;&lt;/p&gt;" style="shape=offPageConnector;whiteSpace=wrap;html=1;" parent="1" vertex="1">
          <mxGeometry x="-21" y="442" width="67" height="62" as="geometry" />
        </mxCell>
        <mxCell id="vmJWQ_1JDKpST4ib9WJc-19" style="edgeStyle=none;curved=1;rounded=0;orthogonalLoop=1;jettySize=auto;html=1;fontSize=12;startSize=8;endSize=8;" parent="1" source="vmJWQ_1JDKpST4ib9WJc-18" target="oVrlTyvF-A_4aBX3ZRdt-207" edge="1">
          <mxGeometry relative="1" as="geometry" />
        </mxCell>
        <mxCell id="vmJWQ_1JDKpST4ib9WJc-18" value="&lt;p style=&quot;line-height: 130%;&quot;&gt;&lt;font style=&quot;font-size: 22px;&quot;&gt;A&lt;/font&gt;&lt;/p&gt;" style="shape=offPageConnector;whiteSpace=wrap;html=1;" parent="1" vertex="1">
          <mxGeometry x="-46" y="1351" width="67" height="62" as="geometry" />
        </mxCell>
        <mxCell id="vmJWQ_1JDKpST4ib9WJc-21" value="End" style="strokeWidth=2;html=1;shape=mxgraph.flowchart.terminator;whiteSpace=wrap;" parent="1" vertex="1">
          <mxGeometry x="352" y="1944.2999999999997" width="100" height="46" as="geometry" />
        </mxCell>
        <mxCell id="vmJWQ_1JDKpST4ib9WJc-22" style="edgeStyle=none;curved=1;rounded=0;orthogonalLoop=1;jettySize=auto;html=1;entryX=0.5;entryY=0;entryDx=0;entryDy=0;entryPerimeter=0;fontSize=12;startSize=8;endSize=8;" parent="1" source="oVrlTyvF-A_4aBX3ZRdt-332" target="vmJWQ_1JDKpST4ib9WJc-21" edge="1">
          <mxGeometry relative="1" as="geometry" />
        </mxCell>
        <mxCell id="vmJWQ_1JDKpST4ib9WJc-23" value="&lt;p style=&quot;line-height: 130%;&quot;&gt;&lt;font style=&quot;font-size: 22px;&quot;&gt;B&lt;/font&gt;&lt;/p&gt;" style="shape=offPageConnector;whiteSpace=wrap;html=1;" parent="1" vertex="1">
          <mxGeometry x="446" y="1140" width="67" height="62" as="geometry" />
        </mxCell>
        <mxCell id="vmJWQ_1JDKpST4ib9WJc-24" value="&lt;p style=&quot;line-height: 130%;&quot;&gt;&lt;font style=&quot;font-size: 22px;&quot;&gt;B&lt;/font&gt;&lt;/p&gt;" style="shape=offPageConnector;whiteSpace=wrap;html=1;" parent="1" vertex="1">
          <mxGeometry x="212.99999999999994" y="1936.2999999999997" width="67" height="62" as="geometry" />
        </mxCell>
        <mxCell id="vmJWQ_1JDKpST4ib9WJc-25" style="edgeStyle=none;curved=1;rounded=0;orthogonalLoop=1;jettySize=auto;html=1;entryX=0;entryY=0.5;entryDx=0;entryDy=0;entryPerimeter=0;fontSize=12;startSize=8;endSize=8;" parent="1" source="vmJWQ_1JDKpST4ib9WJc-24" target="vmJWQ_1JDKpST4ib9WJc-21" edge="1">
          <mxGeometry relative="1" as="geometry" />
        </mxCell>
        <mxCell id="vmJWQ_1JDKpST4ib9WJc-26" value="&lt;font style=&quot;font-size: 16px;&quot;&gt;B&lt;/font&gt;" style="ellipse;whiteSpace=wrap;html=1;" parent="1" vertex="1">
          <mxGeometry x="239" y="892" width="62" height="59" as="geometry" />
        </mxCell>
        <mxCell id="vmJWQ_1JDKpST4ib9WJc-48" value="" style="edgeStyle=none;curved=1;rounded=0;orthogonalLoop=1;jettySize=auto;html=1;fontSize=12;startSize=8;endSize=8;" parent="1" source="vmJWQ_1JDKpST4ib9WJc-44" edge="1">
          <mxGeometry relative="1" as="geometry">
            <mxPoint x="851.7239819004526" y="427.7239819004528" as="targetPoint" />
          </mxGeometry>
        </mxCell>
        <mxCell id="vmJWQ_1JDKpST4ib9WJc-44" value="&lt;font style=&quot;font-size: 16px;&quot;&gt;B&lt;/font&gt;" style="ellipse;whiteSpace=wrap;html=1;" parent="1" vertex="1">
          <mxGeometry x="822" y="329" width="62" height="59" as="geometry" />
        </mxCell>
        <mxCell id="vmJWQ_1JDKpST4ib9WJc-51" value="" style="edgeStyle=none;curved=1;rounded=0;orthogonalLoop=1;jettySize=auto;html=1;fontSize=12;startSize=8;endSize=8;" parent="1" source="vmJWQ_1JDKpST4ib9WJc-49" target="vmJWQ_1JDKpST4ib9WJc-50" edge="1">
          <mxGeometry relative="1" as="geometry" />
        </mxCell>
        <mxCell id="vmJWQ_1JDKpST4ib9WJc-52" value="" style="edgeStyle=none;curved=1;rounded=0;orthogonalLoop=1;jettySize=auto;html=1;fontSize=12;startSize=8;endSize=8;" parent="1" source="vmJWQ_1JDKpST4ib9WJc-49" target="vmJWQ_1JDKpST4ib9WJc-50" edge="1">
          <mxGeometry relative="1" as="geometry" />
        </mxCell>
        <mxCell id="vmJWQ_1JDKpST4ib9WJc-49" value="Homepage" style="rounded=0;whiteSpace=wrap;html=1;" parent="1" vertex="1">
          <mxGeometry x="802" y="433" width="106" height="39" as="geometry" />
        </mxCell>
        <mxCell id="vmJWQ_1JDKpST4ib9WJc-53" style="edgeStyle=none;curved=1;rounded=0;orthogonalLoop=1;jettySize=auto;html=1;fontSize=12;startSize=8;endSize=8;" parent="1" source="vmJWQ_1JDKpST4ib9WJc-50" edge="1">
          <mxGeometry relative="1" as="geometry">
            <mxPoint x="853.0000000000005" y="642.9047619047619" as="targetPoint" />
          </mxGeometry>
        </mxCell>
        <mxCell id="vmJWQ_1JDKpST4ib9WJc-56" value="Yes" style="edgeLabel;html=1;align=center;verticalAlign=middle;resizable=0;points=[];fontSize=12;" parent="vmJWQ_1JDKpST4ib9WJc-53" vertex="1" connectable="0">
          <mxGeometry x="-0.3807" y="-1" relative="1" as="geometry">
            <mxPoint as="offset" />
          </mxGeometry>
        </mxCell>
        <mxCell id="vmJWQ_1JDKpST4ib9WJc-54" style="edgeStyle=none;curved=0;rounded=0;orthogonalLoop=1;jettySize=auto;html=1;fontSize=12;startSize=8;endSize=8;" parent="1" source="vmJWQ_1JDKpST4ib9WJc-50" edge="1">
          <mxGeometry relative="1" as="geometry">
            <mxPoint x="788.1428571428569" y="454.33333333333326" as="targetPoint" />
            <Array as="points">
              <mxPoint x="741" y="556" />
              <mxPoint x="741" y="454" />
            </Array>
          </mxGeometry>
        </mxCell>
        <mxCell id="vmJWQ_1JDKpST4ib9WJc-55" value="No" style="edgeLabel;html=1;align=center;verticalAlign=middle;resizable=0;points=[];fontSize=12;" parent="vmJWQ_1JDKpST4ib9WJc-54" vertex="1" connectable="0">
          <mxGeometry x="0.065" y="-3" relative="1" as="geometry">
            <mxPoint as="offset" />
          </mxGeometry>
        </mxCell>
        <mxCell id="vmJWQ_1JDKpST4ib9WJc-50" value="Are have question?" style="rhombus;whiteSpace=wrap;html=1;rounded=0;" parent="1" vertex="1">
          <mxGeometry x="807.5" y="516" width="91" height="80" as="geometry" />
        </mxCell>
        <mxCell id="XBqwWRFmHxsyb8oAG_Is-2" value="" style="edgeStyle=none;curved=1;rounded=0;orthogonalLoop=1;jettySize=auto;html=1;fontSize=12;startSize=8;endSize=8;" parent="1" source="vmJWQ_1JDKpST4ib9WJc-57" target="XBqwWRFmHxsyb8oAG_Is-1" edge="1">
          <mxGeometry relative="1" as="geometry" />
        </mxCell>
        <mxCell id="vmJWQ_1JDKpST4ib9WJc-57" value="CHATBOT" style="rounded=0;whiteSpace=wrap;html=1;" parent="1" vertex="1">
          <mxGeometry x="803.5" y="646" width="103" height="40" as="geometry" />
        </mxCell>
        <mxCell id="zkdXnH5M1xppwkViELG2-18" value="Yes" style="curved=1;startArrow=none;endArrow=block;exitX=1;exitY=0.33;entryX=1;entryY=0.97;rounded=0;fontSize=12;startSize=8;endSize=8;" parent="1" edge="1">
          <mxGeometry relative="1" as="geometry">
            <Array as="points">
              <mxPoint x="1039" y="2361" />
              <mxPoint x="1039" y="1976" />
            </Array>
            <mxPoint x="934" y="1948.9899999999998" as="targetPoint" />
          </mxGeometry>
        </mxCell>
        <mxCell id="XBqwWRFmHxsyb8oAG_Is-4" value="" style="edgeStyle=none;curved=1;rounded=0;orthogonalLoop=1;jettySize=auto;html=1;fontSize=12;startSize=8;endSize=8;" parent="1" source="XBqwWRFmHxsyb8oAG_Is-1" target="XBqwWRFmHxsyb8oAG_Is-3" edge="1">
          <mxGeometry relative="1" as="geometry" />
        </mxCell>
        <mxCell id="XBqwWRFmHxsyb8oAG_Is-7" value="Yes" style="edgeLabel;html=1;align=center;verticalAlign=middle;resizable=0;points=[];fontSize=12;" parent="XBqwWRFmHxsyb8oAG_Is-4" vertex="1" connectable="0">
          <mxGeometry x="-0.1018" y="3" relative="1" as="geometry">
            <mxPoint as="offset" />
          </mxGeometry>
        </mxCell>
        <mxCell id="XBqwWRFmHxsyb8oAG_Is-5" style="edgeStyle=none;curved=0;rounded=0;orthogonalLoop=1;jettySize=auto;html=1;fontSize=12;startSize=8;endSize=8;" parent="1" source="XBqwWRFmHxsyb8oAG_Is-1" edge="1">
          <mxGeometry relative="1" as="geometry">
            <mxPoint x="910.8333333333335" y="663" as="targetPoint" />
            <Array as="points">
              <mxPoint x="959" y="768" />
              <mxPoint x="957" y="663" />
            </Array>
          </mxGeometry>
        </mxCell>
        <mxCell id="XBqwWRFmHxsyb8oAG_Is-6" value="No" style="edgeLabel;html=1;align=center;verticalAlign=middle;resizable=0;points=[];fontSize=12;" parent="XBqwWRFmHxsyb8oAG_Is-5" vertex="1" connectable="0">
          <mxGeometry x="0.1358" y="-3" relative="1" as="geometry">
            <mxPoint as="offset" />
          </mxGeometry>
        </mxCell>
        <mxCell id="XBqwWRFmHxsyb8oAG_Is-1" value="Start a Chat?" style="rhombus;whiteSpace=wrap;html=1;rounded=0;" parent="1" vertex="1">
          <mxGeometry x="809" y="730" width="93" height="80" as="geometry" />
        </mxCell>
        <mxCell id="XBqwWRFmHxsyb8oAG_Is-9" value="" style="edgeStyle=none;curved=1;rounded=0;orthogonalLoop=1;jettySize=auto;html=1;fontSize=12;startSize=8;endSize=8;" parent="1" source="XBqwWRFmHxsyb8oAG_Is-3" target="XBqwWRFmHxsyb8oAG_Is-8" edge="1">
          <mxGeometry relative="1" as="geometry" />
        </mxCell>
        <mxCell id="XBqwWRFmHxsyb8oAG_Is-3" value="Choose a Question" style="whiteSpace=wrap;html=1;rounded=0;" parent="1" vertex="1">
          <mxGeometry x="809" y="851" width="97" height="43" as="geometry" />
        </mxCell>
        <mxCell id="XBqwWRFmHxsyb8oAG_Is-8" value="Chatbot Reply your Question" style="whiteSpace=wrap;html=1;rounded=0;" parent="1" vertex="1">
          <mxGeometry x="805" y="923" width="103" height="41" as="geometry" />
        </mxCell>
        <mxCell id="XBqwWRFmHxsyb8oAG_Is-10" value="On page&amp;nbsp;&lt;div&gt;Link&lt;/div&gt;" style="ellipse;whiteSpace=wrap;html=1;aspect=fixed;" parent="1" vertex="1">
          <mxGeometry x="717" y="-322" width="69" height="69" as="geometry" />
        </mxCell>
        <mxCell id="XBqwWRFmHxsyb8oAG_Is-11" value="Off Page&amp;nbsp;&lt;div&gt;Link&lt;/div&gt;" style="shape=offPageConnector;whiteSpace=wrap;html=1;" parent="1" vertex="1">
          <mxGeometry x="439" y="-316" width="80" height="80" as="geometry" />
        </mxCell>
        <mxCell id="1ylTRdJENU4pVT3rf3BK-9" style="edgeStyle=none;curved=1;rounded=0;orthogonalLoop=1;jettySize=auto;html=1;entryX=0.45;entryY=0.082;entryDx=0;entryDy=0;entryPerimeter=0;fontSize=12;startSize=8;endSize=8;" edge="1" parent="1" source="oVrlTyvF-A_4aBX3ZRdt-294" target="oVrlTyvF-A_4aBX3ZRdt-303">
          <mxGeometry relative="1" as="geometry" />
        </mxCell>
        <mxCell id="1ylTRdJENU4pVT3rf3BK-12" value="&lt;b&gt;&lt;font style=&quot;font-size: 14px;&quot;&gt;A&lt;/font&gt;&lt;/b&gt;" style="ellipse;whiteSpace=wrap;html=1;aspect=fixed;" vertex="1" parent="1">
          <mxGeometry x="-41.5" y="2124" width="58" height="58" as="geometry" />
        </mxCell>
        <mxCell id="1ylTRdJENU4pVT3rf3BK-18" style="edgeStyle=none;curved=1;rounded=0;orthogonalLoop=1;jettySize=auto;html=1;fontSize=12;startSize=8;endSize=8;" edge="1" parent="1" source="1ylTRdJENU4pVT3rf3BK-15">
          <mxGeometry relative="1" as="geometry">
            <mxPoint x="243" y="1441" as="targetPoint" />
          </mxGeometry>
        </mxCell>
        <mxCell id="1ylTRdJENU4pVT3rf3BK-15" value="&lt;b&gt;&lt;font style=&quot;font-size: 14px;&quot;&gt;A&lt;/font&gt;&lt;/b&gt;" style="ellipse;whiteSpace=wrap;html=1;aspect=fixed;" vertex="1" parent="1">
          <mxGeometry x="215" y="1351" width="58" height="58" as="geometry" />
        </mxCell>
      </root>
    </mxGraphModel>
  </diagram>
</mxfile>
